# Blender v2.79 (sub 0) OBJ File: 'jungle_atlas_export.blend'
# www.blender.org
mtllib jungle_hut_wall_m.mtl
o Hut_wall_hut_wall_single
v -0.776267 -0.637520 0.016401
v -0.777021 -0.668635 0.019884
v -0.779496 -0.659155 0.031318
v -0.778742 -0.628040 0.027834
v -0.589933 -0.637520 -0.028057
v -0.588443 -0.668635 -0.018695
v -0.583551 -0.659154 0.012033
v -0.585041 -0.628040 0.002671
v -0.417746 -0.637520 -0.045426
v -0.418190 -0.668635 -0.035956
v -0.419648 -0.659154 -0.004876
v -0.419204 -0.628040 -0.014345
v -0.162865 -0.637520 0.004796
v -0.164807 -0.668635 0.014075
v -0.171179 -0.659154 0.044531
v -0.169238 -0.628040 0.035251
v 0.025717 -0.637520 0.047013
v 0.025975 -0.668635 0.056490
v 0.026823 -0.659154 0.087593
v 0.026565 -0.628040 0.078116
v 0.193781 -0.637520 -0.000420
v 0.196303 -0.668635 0.008718
v 0.204582 -0.659154 0.038711
v 0.202059 -0.628040 0.029573
v 0.387107 -0.637520 -0.052600
v 0.387186 -0.668635 -0.043121
v 0.387446 -0.659154 -0.012007
v 0.387367 -0.628040 -0.021487
v 0.593345 -0.637520 -0.000578
v 0.590967 -0.668635 0.008599
v 0.583161 -0.659154 0.038719
v 0.585539 -0.628040 0.029542
v 0.776307 -0.637520 -0.014081
v 0.776093 -0.668635 -0.011966
v 0.775391 -0.659154 -0.005023
v 0.775605 -0.628040 -0.007139
v 0.366463 0.804975 0.039918
v 0.343951 0.804259 -0.004023
v 0.387877 0.805399 -0.026547
v 0.410389 0.806115 0.017394
v 0.350862 -0.789318 -0.043834
v 0.344780 -0.789600 -0.092835
v 0.393763 -0.788283 -0.098922
v 0.399845 -0.788002 -0.049921
v -0.445005 0.804975 0.063878
v -0.467517 0.804259 0.019937
v -0.423591 0.805399 -0.002587
v -0.401079 0.806115 0.041355
v -0.460606 -0.789318 -0.019874
v -0.466688 -0.789599 -0.068874
v -0.417705 -0.788283 -0.074962
v -0.411623 -0.788002 -0.025961
v 0.006946 0.804975 0.056782
v -0.015566 0.804259 0.012841
v 0.028361 0.805399 -0.009682
v 0.050873 0.806115 0.034259
v -0.008655 -0.789318 -0.026970
v -0.014737 -0.789600 -0.075970
v 0.034246 -0.788283 -0.082058
v 0.040328 -0.788002 -0.033057
v -0.776092 -0.375282 0.016893
v -0.775930 -0.407765 0.016271
v -0.779055 -0.409453 0.028246
v -0.779218 -0.376970 0.028868
v -0.584419 -0.375282 0.023463
v -0.584134 -0.407765 0.021800
v -0.589628 -0.409453 0.053815
v -0.589914 -0.376970 0.055478
v -0.419734 -0.375282 0.042419
v -0.419793 -0.407766 0.040732
v -0.418663 -0.409453 0.073196
v -0.418604 -0.376970 0.074883
v -0.169911 -0.375282 -0.004070
v -0.170237 -0.407765 -0.005726
v -0.163969 -0.409453 0.026146
v -0.163643 -0.376970 0.027802
v 0.027459 -0.375282 -0.044649
v 0.027526 -0.407766 -0.046335
v 0.026248 -0.409453 -0.013877
v 0.026182 -0.376970 -0.012191
v 0.203446 -0.375282 0.006189
v 0.203915 -0.407766 0.004567
v 0.194894 -0.409453 0.035773
v 0.194426 -0.376970 0.037394
v 0.386945 -0.375282 0.059305
v 0.386980 -0.407766 0.057618
v 0.386315 -0.409453 0.090094
v 0.386281 -0.376970 0.091781
v 0.584530 -0.375282 0.010806
v 0.584127 -0.407765 0.009168
v 0.591895 -0.409453 0.040708
v 0.592299 -0.376970 0.042347
v 0.787908 -0.375283 -0.033931
v 0.788216 -0.407766 -0.034331
v 0.782283 -0.409453 -0.026636
v 0.781975 -0.376970 -0.026236
v -0.776267 -0.044578 0.016401
v -0.777021 -0.075693 0.019884
v -0.779497 -0.066213 0.031318
v -0.778742 -0.035098 0.027834
v -0.589933 -0.044578 -0.028057
v -0.588443 -0.075693 -0.018695
v -0.583551 -0.066213 0.012033
v -0.585041 -0.035098 0.002671
v -0.417746 -0.044578 -0.045426
v -0.418190 -0.075693 -0.035956
v -0.419648 -0.066213 -0.004876
v -0.419204 -0.035098 -0.014345
v -0.162865 -0.044578 0.004796
v -0.164807 -0.075693 0.014075
v -0.171179 -0.066213 0.044531
v -0.169238 -0.035098 0.035251
v 0.025717 -0.044578 0.047013
v 0.025975 -0.075693 0.056490
v 0.026823 -0.066213 0.087593
v 0.026565 -0.035098 0.078116
v 0.193781 -0.044578 -0.000420
v 0.196303 -0.075693 0.008718
v 0.204582 -0.066213 0.038711
v 0.202059 -0.035098 0.029573
v 0.387107 -0.044578 -0.052600
v 0.387186 -0.075693 -0.043121
v 0.387446 -0.066213 -0.012007
v 0.387367 -0.035098 -0.021487
v 0.593345 -0.044578 -0.000578
v 0.590967 -0.075693 0.008599
v 0.583161 -0.066213 0.038719
v 0.585539 -0.035098 0.029542
v 0.776307 -0.044578 -0.014081
v 0.776093 -0.075693 -0.011966
v 0.775391 -0.066213 -0.005023
v 0.775605 -0.035098 -0.007138
v -0.776092 0.217659 0.016893
v -0.775930 0.185176 0.016271
v -0.779055 0.183488 0.028246
v -0.779218 0.215971 0.028868
v -0.584419 0.217659 0.023463
v -0.584134 0.185176 0.021800
v -0.589628 0.183488 0.053815
v -0.589914 0.215971 0.055478
v -0.419734 0.217659 0.042419
v -0.419793 0.185176 0.040732
v -0.418663 0.183488 0.073196
v -0.418604 0.215971 0.074883
v -0.169911 0.217659 -0.004070
v -0.170237 0.185176 -0.005726
v -0.163969 0.183488 0.026146
v -0.163643 0.215971 0.027802
v 0.027459 0.217659 -0.044649
v 0.027526 0.185176 -0.046335
v 0.026248 0.183488 -0.013877
v 0.026182 0.215971 -0.012191
v 0.203446 0.217659 0.006189
v 0.203915 0.185176 0.004567
v 0.194894 0.183488 0.035773
v 0.194426 0.215971 0.037394
v 0.386945 0.217659 0.059305
v 0.386980 0.185176 0.057617
v 0.386315 0.183488 0.090094
v 0.386281 0.215971 0.091781
v 0.584530 0.217659 0.010806
v 0.584127 0.185176 0.009168
v 0.591896 0.183488 0.040708
v 0.592299 0.215971 0.042347
v 0.787908 0.217659 -0.033931
v 0.788216 0.185176 -0.034331
v 0.782283 0.183488 -0.026636
v 0.781975 0.215971 -0.026236
v -0.784251 0.777623 0.034284
v -0.785582 -0.803809 0.049173
v 0.742417 0.788002 0.046359
v 0.727973 -0.806115 0.023745
v -0.778627 0.526334 -0.005281
v -0.779382 0.495219 -0.001798
v -0.781857 0.504700 0.009635
v -0.781103 0.535814 0.006152
v -0.592294 0.526334 -0.049739
v -0.590803 0.495219 -0.040377
v -0.585911 0.504700 -0.009649
v -0.587402 0.535814 -0.019012
v -0.420106 0.526334 -0.067109
v -0.420551 0.495220 -0.057639
v -0.422009 0.504700 -0.026558
v -0.421565 0.535814 -0.036028
v -0.165226 0.526334 -0.016886
v -0.167167 0.495219 -0.007607
v -0.173540 0.504699 0.022848
v -0.171598 0.535814 0.013569
v 0.023357 0.526334 0.025331
v 0.023615 0.495219 0.034808
v 0.024463 0.504700 0.065911
v 0.024204 0.535814 0.056434
v 0.191420 0.526334 -0.022102
v 0.193942 0.495219 -0.012964
v 0.202221 0.504700 0.017029
v 0.199699 0.535814 0.007891
v 0.384746 0.526334 -0.074283
v 0.384825 0.495219 -0.064803
v 0.385086 0.504699 -0.033689
v 0.385007 0.535814 -0.043169
v 0.590985 0.526334 -0.022260
v 0.588606 0.495219 -0.013083
v 0.580800 0.504700 0.017037
v 0.583179 0.535814 0.007860
v 0.773946 0.526334 -0.035763
v 0.773732 0.495219 -0.033648
v 0.773031 0.504700 -0.026706
v 0.773245 0.535814 -0.028821
v 0.410389 0.806115 0.017394
v 0.399845 -0.788002 -0.049921
v -0.401079 0.806115 0.041355
v -0.411623 -0.788002 -0.025961
v 0.366463 0.804975 0.039918
v 0.350862 -0.789318 -0.043834
v 0.050873 0.806115 0.034259
v 0.040328 -0.788002 -0.033057
v -0.445005 0.804975 0.063878
v -0.460606 -0.789318 -0.019874
v 0.006946 0.804975 0.056782
v -0.008655 -0.789318 -0.026970
v 0.366463 0.804975 0.039918
v 0.410389 0.806115 0.017394
v 0.350862 -0.789318 -0.043834
v 0.399845 -0.788002 -0.049921
v -0.445005 0.804975 0.063878
v -0.401079 0.806115 0.041355
v -0.460606 -0.789318 -0.019874
v -0.411623 -0.788002 -0.025961
v 0.006946 0.804975 0.056782
v 0.050873 0.806115 0.034259
v -0.008655 -0.789318 -0.026970
v 0.040328 -0.788002 -0.033057
v -0.784251 0.777623 0.034284
v -0.785582 -0.803809 0.049173
v 0.742417 0.788002 0.046359
v 0.727973 -0.806115 0.023745
vt 0.919123 0.931078
vt 0.919060 0.931052
vt 0.918948 0.931924
vt 0.919093 0.931929
vt 0.919264 0.931076
vt 0.919239 0.931931
vt 0.919329 0.931056
vt 0.919381 0.931935
vt 0.919469 0.931053
vt 0.919525 0.931928
vt 0.918933 0.932689
vt 0.919082 0.932691
vt 0.919228 0.932693
vt 0.919378 0.932694
vt 0.919529 0.932695
vt 0.918921 0.933865
vt 0.919068 0.933868
vt 0.919217 0.933871
vt 0.919363 0.933873
vt 0.919512 0.933874
vt 0.918885 0.934825
vt 0.919045 0.934825
vt 0.919210 0.934825
vt 0.919365 0.934826
vt 0.919517 0.934826
vt 0.918918 0.935694
vt 0.919065 0.935691
vt 0.919217 0.935688
vt 0.919360 0.935686
vt 0.919507 0.935685
vt 0.918931 0.936585
vt 0.919074 0.936585
vt 0.919216 0.936584
vt 0.919364 0.936584
vt 0.919520 0.936582
vt 0.918910 0.937571
vt 0.919068 0.937596
vt 0.919235 0.937585
vt 0.919380 0.937554
vt 0.919529 0.937569
vt 0.919062 0.938505
vt 0.919116 0.938508
vt 0.919259 0.938499
vt 0.919314 0.938490
vt 0.919465 0.938504
vt 0.873133 0.926515
vt 0.873363 0.926503
vt 0.873363 0.933936
vt 0.873133 0.933949
vt 0.873593 0.926499
vt 0.873823 0.926513
vt 0.873823 0.933952
vt 0.873593 0.933937
vt 0.853708 0.903115
vt 0.853938 0.903111
vt 0.853938 0.910548
vt 0.853708 0.910548
vt 0.953266 0.769482
vt 0.953496 0.769489
vt 0.953496 0.776923
vt 0.953266 0.776921
vt 0.853478 0.903127
vt 0.853479 0.910561
vt 0.953726 0.769477
vt 0.953956 0.769473
vt 0.953956 0.776911
vt 0.953726 0.776911
vt 0.853249 0.903120
vt 0.853249 0.910559
vt 0.854168 0.903125
vt 0.854168 0.910563
vt 0.872903 0.933947
vt 0.872903 0.926508
vt 0.955052 0.890593
vt 0.954997 0.890580
vt 0.954893 0.891444
vt 0.955038 0.891461
vt 0.955202 0.890596
vt 0.955183 0.891463
vt 0.955258 0.890584
vt 0.955327 0.891450
vt 0.955406 0.890572
vt 0.955480 0.891443
vt 0.954875 0.892243
vt 0.955030 0.892244
vt 0.955189 0.892244
vt 0.955344 0.892243
vt 0.955495 0.892242
vt 0.954893 0.893462
vt 0.955042 0.893460
vt 0.955195 0.893458
vt 0.955338 0.893457
vt 0.955492 0.893457
vt 0.954914 0.894350
vt 0.955056 0.894351
vt 0.955195 0.894351
vt 0.955338 0.894351
vt 0.955488 0.894351
vt 0.954891 0.895152
vt 0.955038 0.895157
vt 0.955190 0.895160
vt 0.955332 0.895162
vt 0.955490 0.895162
vt 0.954856 0.896102
vt 0.955015 0.896103
vt 0.955182 0.896105
vt 0.955341 0.896106
vt 0.955495 0.896107
vt 0.954878 0.897110
vt 0.955025 0.897105
vt 0.955171 0.897102
vt 0.955317 0.897102
vt 0.955473 0.897110
vt 0.955018 0.898028
vt 0.955049 0.898061
vt 0.955199 0.898060
vt 0.955228 0.898025
vt 0.955380 0.898039
vt 0.954576 0.926229
vt 0.954513 0.926203
vt 0.954401 0.927075
vt 0.954547 0.927080
vt 0.954718 0.926227
vt 0.954693 0.927082
vt 0.954782 0.926207
vt 0.954835 0.927085
vt 0.954923 0.926204
vt 0.954978 0.927079
vt 0.954387 0.927839
vt 0.954535 0.927842
vt 0.954682 0.927843
vt 0.954831 0.927845
vt 0.954982 0.927845
vt 0.954374 0.929016
vt 0.954521 0.929019
vt 0.954670 0.929022
vt 0.954816 0.929024
vt 0.954965 0.929025
vt 0.954338 0.929976
vt 0.954498 0.929976
vt 0.954663 0.929976
vt 0.954818 0.929976
vt 0.954970 0.929977
vt 0.954372 0.930845
vt 0.954519 0.930842
vt 0.954670 0.930839
vt 0.954814 0.930837
vt 0.954960 0.930836
vt 0.954384 0.931735
vt 0.954528 0.931736
vt 0.954669 0.931735
vt 0.954817 0.931734
vt 0.954974 0.931733
vt 0.954364 0.932722
vt 0.954522 0.932747
vt 0.954688 0.932735
vt 0.954834 0.932705
vt 0.954982 0.932720
vt 0.954515 0.933656
vt 0.954570 0.933658
vt 0.954713 0.933650
vt 0.954768 0.933641
vt 0.954918 0.933654
vt 0.955052 0.898401
vt 0.954997 0.898388
vt 0.954893 0.899253
vt 0.955038 0.899269
vt 0.955202 0.898404
vt 0.955183 0.899271
vt 0.955258 0.898393
vt 0.955327 0.899259
vt 0.955406 0.898380
vt 0.955480 0.899251
vt 0.954875 0.900052
vt 0.955030 0.900052
vt 0.955189 0.900052
vt 0.955344 0.900051
vt 0.955495 0.900050
vt 0.954893 0.901271
vt 0.955042 0.901268
vt 0.955195 0.901266
vt 0.955338 0.901265
vt 0.955492 0.901265
vt 0.954914 0.902158
vt 0.955056 0.902159
vt 0.955195 0.902159
vt 0.955338 0.902159
vt 0.955488 0.902160
vt 0.954891 0.902961
vt 0.955038 0.902965
vt 0.955190 0.902968
vt 0.955332 0.902970
vt 0.955490 0.902970
vt 0.954856 0.903910
vt 0.955015 0.903911
vt 0.955182 0.903913
vt 0.955341 0.903914
vt 0.955495 0.903915
vt 0.954878 0.904918
vt 0.955025 0.904913
vt 0.955171 0.904910
vt 0.955317 0.904911
vt 0.955473 0.904918
vt 0.955018 0.905836
vt 0.955049 0.905869
vt 0.955199 0.905868
vt 0.955228 0.905833
vt 0.955380 0.905847
vt 0.954185 0.769487
vt 0.954185 0.776926
vt 0.954213 0.795994
vt 0.952743 0.796000
vt 0.952766 0.788562
vt 0.954213 0.788560
vt 0.950613 0.812961
vt 0.950638 0.805522
vt 0.952516 0.805516
vt 0.952516 0.812950
vt 0.895716 0.935962
vt 0.895754 0.928524
vt 0.897302 0.928452
vt 0.897302 0.935820
vt 0.953184 0.849858
vt 0.953184 0.857292
vt 0.951631 0.857224
vt 0.951617 0.849795
vt 0.954576 0.918476
vt 0.954513 0.918450
vt 0.954401 0.919322
vt 0.954547 0.919327
vt 0.954718 0.918474
vt 0.954693 0.919329
vt 0.954782 0.918454
vt 0.954835 0.919332
vt 0.954923 0.918451
vt 0.954978 0.919326
vt 0.954387 0.920086
vt 0.954535 0.920089
vt 0.954682 0.920090
vt 0.954831 0.920092
vt 0.954982 0.920092
vt 0.954374 0.921263
vt 0.954521 0.921266
vt 0.954670 0.921269
vt 0.954816 0.921271
vt 0.954965 0.921272
vt 0.954338 0.922223
vt 0.954498 0.922223
vt 0.954663 0.922223
vt 0.954818 0.922223
vt 0.954970 0.922224
vt 0.954372 0.923092
vt 0.954519 0.923088
vt 0.954670 0.923086
vt 0.954813 0.923084
vt 0.954960 0.923083
vt 0.954384 0.923982
vt 0.954528 0.923983
vt 0.954669 0.923982
vt 0.954817 0.923981
vt 0.954974 0.923980
vt 0.954364 0.924969
vt 0.954522 0.924994
vt 0.954688 0.924982
vt 0.954834 0.924952
vt 0.954982 0.924967
vt 0.954515 0.925903
vt 0.954570 0.925905
vt 0.954713 0.925897
vt 0.954768 0.925888
vt 0.954918 0.925901
vt 0.953357 0.840542
vt 0.953357 0.847976
vt 0.951909 0.847975
vt 0.951886 0.840536
vt 0.949416 0.849795
vt 0.951319 0.849806
vt 0.951319 0.857240
vt 0.949441 0.857234
vt 0.951238 0.918450
vt 0.952823 0.918592
vt 0.952823 0.925960
vt 0.951276 0.925889
vt 0.866655 0.936449
vt 0.865088 0.936511
vt 0.865102 0.929083
vt 0.866655 0.929014
vn -0.0743 0.9111 -0.4055
vn -0.0515 0.9361 -0.3478
vn -0.0519 0.9357 -0.3490
vn -0.2119 -0.2000 -0.9566
vn -0.1544 -0.2456 -0.9570
vn 0.0612 -0.9116 0.4065
vn 0.0456 -0.9356 0.3500
vn 0.0450 -0.9365 0.3477
vn 0.1110 0.2022 0.9730
vn 0.1045 0.2467 0.9634
vn 0.1046 0.2459 0.9636
vn 0.0136 0.9570 -0.2898
vn 0.0449 -0.2928 -0.9551
vn -0.0136 -0.9570 0.2898
vn -0.0447 0.2928 0.9551
vn 0.0603 0.9557 -0.2879
vn 0.1969 -0.2887 -0.9370
vn -0.0602 -0.9557 0.2880
vn -0.1953 0.2888 0.9373
vn -0.0078 0.9578 -0.2873
vn -0.0262 -0.2956 -0.9550
vn 0.0078 -0.9578 0.2874
vn 0.0259 0.2955 0.9550
vn -0.0787 0.9553 -0.2851
vn -0.2549 -0.2873 -0.9233
vn 0.0787 -0.9553 0.2851
vn 0.2549 0.2872 0.9233
vn -0.0024 0.9579 -0.2870
vn -0.0079 -0.2959 -0.9552
vn 0.0024 -0.9580 0.2869
vn 0.0081 0.2961 0.9551
vn 0.0159 0.9309 -0.3648
vn -0.0011 0.9220 -0.3873
vn 0.0683 -0.2325 -0.9702
vn 0.0790 -0.2362 -0.9685
vn 0.0110 -0.9208 0.3898
vn -0.0099 -0.9310 0.3650
vn -0.0290 0.2358 0.9714
vn -0.0100 0.2306 0.9730
vn -0.0627 0.8826 -0.4659
vn -0.0908 -0.1741 -0.9805
vn 0.0798 -0.8799 0.4685
vn 0.2030 0.1666 0.9649
vn 0.9557 0.0115 -0.2941
vn -0.9557 -0.0115 0.2941
vn -0.2951 0.0476 -0.9543
vn 0.2951 -0.0476 0.9543
vn -0.0066 0.9971 0.0752
vn -0.0062 0.9979 0.0639
vn -0.0062 0.9980 0.0628
vn 0.0315 0.0354 -0.9989
vn 0.0728 0.0435 -0.9964
vn 0.0731 0.0435 -0.9964
vn 0.0061 -0.9971 -0.0753
vn 0.0060 -0.9980 -0.0628
vn 0.0060 -0.9979 -0.0639
vn -0.1364 -0.0358 0.9900
vn -0.1244 -0.0437 0.9913
vn -0.1245 -0.0437 0.9913
vn 0.0018 0.9987 0.0516
vn -0.0346 0.0522 -0.9980
vn -0.0018 -0.9987 -0.0516
vn 0.0348 -0.0521 0.9980
vn 0.0101 0.9986 0.0514
vn -0.1919 0.0514 -0.9801
vn -0.0101 -0.9986 -0.0514
vn 0.1936 -0.0514 0.9797
vn -0.0020 0.9987 0.0511
vn 0.0392 0.0527 -0.9978
vn 0.0020 -0.9987 -0.0511
vn -0.0394 -0.0527 0.9978
vn -0.0146 0.9986 0.0506
vn 0.2774 0.0511 -0.9594
vn 0.0146 -0.9986 -0.0506
vn -0.2774 -0.0511 0.9594
vn -0.0010 0.9987 0.0510
vn 0.0205 0.0528 -0.9984
vn 0.0010 -0.9987 -0.0510
vn -0.0203 -0.0528 0.9984
vn 0.0182 0.9976 0.0674
vn 0.0184 0.9975 0.0678
vn -0.2249 0.0410 -0.9735
vn -0.0181 -0.9975 -0.0678
vn -0.0179 -0.9976 -0.0674
vn 0.2854 -0.0406 0.9576
vn 0.2852 -0.0406 0.9576
vn 0.0244 0.9961 0.0846
vn -0.2115 0.0310 -0.9769
vn -0.0238 -0.9961 -0.0846
vn 0.3366 -0.0300 0.9412
vn 0.0078 -0.9578 0.2873
vn -0.0011 0.9219 -0.3873
vn 0.0798 -0.8799 0.4684
vn -0.0080 0.0474 -0.9988
vn 0.0179 0.0472 -0.9987
vn -0.0607 0.0220 -0.9979
vn 0.1550 0.0266 -0.9876
vn -0.0520 0.9357 -0.3490
vn -0.0602 -0.9558 0.2880
vn 0.0080 -0.0474 0.9988
vn -0.0179 -0.0472 0.9987
vn 0.0607 -0.0220 0.9979
vn -0.1550 -0.0266 0.9876
usemtl Jungle_colors
s 1
f 1/1/1 4/2/1 8/3/2 5/4/3
f 2/5/4 1/1/4 5/4/5 6/6/5
f 3/7/6 2/5/6 6/6/7 7/8/8
f 4/9/9 3/7/9 7/8/10 8/10/11
f 5/4/3 8/3/2 12/11/12 9/12/12
f 6/6/5 5/4/5 9/12/13 10/13/13
f 7/8/8 6/6/7 10/13/14 11/14/14
f 8/10/11 7/8/10 11/14/15 12/15/15
f 9/12/12 12/11/12 16/16/16 13/17/16
f 10/13/13 9/12/13 13/17/17 14/18/17
f 11/14/14 10/13/14 14/18/18 15/19/18
f 12/15/15 11/14/15 15/19/19 16/20/19
f 13/17/16 16/16/16 20/21/20 17/22/20
f 14/18/17 13/17/17 17/22/21 18/23/21
f 15/19/18 14/18/18 18/23/22 19/24/22
f 16/20/19 15/19/19 19/24/23 20/25/23
f 17/22/20 20/21/20 24/26/24 21/27/24
f 18/23/21 17/22/21 21/27/25 22/28/25
f 19/24/22 18/23/22 22/28/26 23/29/26
f 20/25/23 19/24/23 23/29/27 24/30/27
f 21/27/24 24/26/24 28/31/28 25/32/28
f 22/28/25 21/27/25 25/32/29 26/33/29
f 23/29/26 22/28/26 26/33/30 27/34/30
f 24/30/27 23/29/27 27/34/31 28/35/31
f 25/32/28 28/31/28 32/36/32 29/37/33
f 26/33/29 25/32/29 29/37/34 30/38/35
f 27/34/30 26/33/30 30/38/36 31/39/37
f 28/35/31 27/34/31 31/39/38 32/40/39
f 29/37/33 32/36/32 36/41/40 33/42/40
f 30/38/35 29/37/34 33/42/41 34/43/41
f 31/39/37 30/38/36 34/43/42 35/44/42
f 32/40/39 31/39/38 35/44/43 36/45/43
f 216/46/44 59/47/44 55/48/44 215/49/44
f 58/50/45 220/51/45 219/52/45 54/53/45
f 51/54/46 50/55/46 46/56/46 47/57/46
f 214/58/47 210/59/47 209/60/47 213/61/47
f 212/62/44 51/54/44 47/57/44 211/63/44
f 43/64/46 42/65/46 38/66/46 39/67/46
f 210/59/44 43/64/44 39/67/44 209/60/44
f 55/48/46 59/47/46 58/50/46 54/53/46
f 218/68/47 212/62/47 211/63/47 217/69/47
f 50/55/45 218/70/45 217/71/45 46/56/45
f 219/72/47 220/73/47 216/46/47 215/49/47
f 61/74/48 64/75/48 68/76/49 65/77/50
f 62/78/51 61/74/51 65/77/52 66/79/53
f 63/80/54 62/78/54 66/79/55 67/81/56
f 64/82/57 63/80/57 67/81/58 68/83/59
f 65/77/50 68/76/49 72/84/60 69/85/60
f 66/79/53 65/77/52 69/85/61 70/86/61
f 67/81/56 66/79/55 70/86/62 71/87/62
f 68/83/59 67/81/58 71/87/63 72/88/63
f 69/85/60 72/84/60 76/89/64 73/90/64
f 70/86/61 69/85/61 73/90/65 74/91/65
f 71/87/62 70/86/62 74/91/66 75/92/66
f 72/88/63 71/87/63 75/92/67 76/93/67
f 73/90/64 76/89/64 80/94/68 77/95/68
f 74/91/65 73/90/65 77/95/69 78/96/69
f 75/92/66 74/91/66 78/96/70 79/97/70
f 76/93/67 75/92/67 79/97/71 80/98/71
f 77/95/68 80/94/68 84/99/72 81/100/72
f 78/96/69 77/95/69 81/100/73 82/101/73
f 79/97/70 78/96/70 82/101/74 83/102/74
f 80/98/71 79/97/71 83/102/75 84/103/75
f 81/100/72 84/99/72 88/104/76 85/105/76
f 82/101/73 81/100/73 85/105/77 86/106/77
f 83/102/74 82/101/74 86/106/78 87/107/78
f 84/103/75 83/102/75 87/107/79 88/108/79
f 85/105/76 88/104/76 92/109/80 89/110/81
f 86/106/77 85/105/77 89/110/82 90/111/82
f 87/107/78 86/106/78 90/111/83 91/112/84
f 88/108/79 87/107/79 91/112/85 92/113/86
f 89/110/81 92/109/80 96/114/87 93/115/87
f 90/111/82 89/110/82 93/115/88 94/116/88
f 91/112/84 90/111/83 94/116/89 95/117/89
f 92/113/86 91/112/85 95/117/90 96/118/90
f 97/119/1 100/120/1 104/121/2 101/122/3
f 98/123/4 97/119/4 101/122/5 102/124/5
f 99/125/6 98/123/6 102/124/7 103/126/8
f 100/127/9 99/125/9 103/126/10 104/128/11
f 101/122/3 104/121/2 108/129/12 105/130/12
f 102/124/5 101/122/5 105/130/13 106/131/13
f 103/126/8 102/124/7 106/131/14 107/132/14
f 104/128/11 103/126/10 107/132/15 108/133/15
f 105/130/12 108/129/12 112/134/16 109/135/16
f 106/131/13 105/130/13 109/135/17 110/136/17
f 107/132/14 106/131/14 110/136/18 111/137/18
f 108/133/15 107/132/15 111/137/19 112/138/19
f 109/135/16 112/134/16 116/139/20 113/140/20
f 110/136/17 109/135/17 113/140/21 114/141/21
f 111/137/18 110/136/18 114/141/91 115/142/91
f 112/138/19 111/137/19 115/142/23 116/143/23
f 113/140/20 116/139/20 120/144/24 117/145/24
f 114/141/21 113/140/21 117/145/25 118/146/25
f 115/142/91 114/141/91 118/146/26 119/147/26
f 116/143/23 115/142/23 119/147/27 120/148/27
f 117/145/24 120/144/24 124/149/28 121/150/28
f 118/146/25 117/145/25 121/150/29 122/151/29
f 119/147/26 118/146/26 122/151/30 123/152/30
f 120/148/27 119/147/27 123/152/31 124/153/31
f 121/150/28 124/149/28 128/154/32 125/155/92
f 122/151/29 121/150/29 125/155/34 126/156/35
f 123/152/30 122/151/30 126/156/36 127/157/37
f 124/153/31 123/152/31 127/157/38 128/158/39
f 125/155/92 128/154/32 132/159/40 129/160/40
f 126/156/35 125/155/34 129/160/41 130/161/41
f 127/157/37 126/156/36 130/161/93 131/162/93
f 128/158/39 127/157/38 131/162/43 132/163/43
f 133/164/48 136/165/48 140/166/49 137/167/50
f 134/168/51 133/164/51 137/167/52 138/169/53
f 135/170/54 134/168/54 138/169/55 139/171/56
f 136/172/57 135/170/57 139/171/58 140/173/59
f 137/167/50 140/166/49 144/174/60 141/175/60
f 138/169/53 137/167/52 141/175/61 142/176/61
f 139/171/56 138/169/55 142/176/62 143/177/62
f 140/173/59 139/171/58 143/177/63 144/178/63
f 141/175/60 144/174/60 148/179/64 145/180/64
f 142/176/61 141/175/61 145/180/65 146/181/65
f 143/177/62 142/176/62 146/181/66 147/182/66
f 144/178/63 143/177/63 147/182/67 148/183/67
f 145/180/64 148/179/64 152/184/68 149/185/68
f 146/181/65 145/180/65 149/185/69 150/186/69
f 147/182/66 146/181/66 150/186/70 151/187/70
f 148/183/67 147/182/67 151/187/71 152/188/71
f 149/185/68 152/184/68 156/189/72 153/190/72
f 150/186/69 149/185/69 153/190/73 154/191/73
f 151/187/70 150/186/70 154/191/74 155/192/74
f 152/188/71 151/187/71 155/192/75 156/193/75
f 153/190/72 156/189/72 160/194/76 157/195/76
f 154/191/73 153/190/73 157/195/77 158/196/77
f 155/192/74 154/191/74 158/196/78 159/197/78
f 156/193/75 155/192/75 159/197/79 160/198/79
f 157/195/76 160/194/76 164/199/80 161/200/81
f 158/196/77 157/195/77 161/200/82 162/201/82
f 159/197/78 158/196/78 162/201/83 163/202/84
f 160/198/79 159/197/79 163/202/85 164/203/86
f 161/200/81 164/199/80 168/204/87 165/205/87
f 162/201/82 161/200/82 165/205/88 166/206/88
f 163/202/84 162/201/83 166/206/89 167/207/89
f 164/203/86 163/202/85 167/207/90 168/208/90
f 42/65/45 214/209/45 213/210/45 38/66/45
f 56/211/94 37/212/94 41/213/94 60/214/94
f 53/215/95 57/216/95 52/217/95 48/218/95
f 45/219/96 49/220/96 170/221/96 169/222/96
f 44/223/97 40/224/97 171/225/97 172/226/97
f 173/227/1 176/228/1 180/229/2 177/230/98
f 174/231/4 173/227/4 177/230/5 178/232/5
f 175/233/6 174/231/6 178/232/7 179/234/8
f 176/235/9 175/233/9 179/234/10 180/236/11
f 177/230/98 180/229/2 184/237/12 181/238/12
f 178/232/5 177/230/5 181/238/13 182/239/13
f 179/234/8 178/232/7 182/239/14 183/240/14
f 180/236/11 179/234/10 183/240/15 184/241/15
f 181/238/12 184/237/12 188/242/16 185/243/16
f 182/239/13 181/238/13 185/243/17 186/244/17
f 183/240/14 182/239/14 186/244/99 187/245/99
f 184/241/15 183/240/15 187/245/19 188/246/19
f 185/243/16 188/242/16 192/247/20 189/248/20
f 186/244/17 185/243/17 189/248/21 190/249/21
f 187/245/99 186/244/99 190/249/91 191/250/91
f 188/246/19 187/245/19 191/250/23 192/251/23
f 189/248/20 192/247/20 196/252/24 193/253/24
f 190/249/21 189/248/21 193/253/25 194/254/25
f 191/250/91 190/249/91 194/254/26 195/255/26
f 192/251/23 191/250/23 195/255/27 196/256/27
f 193/253/24 196/252/24 200/257/28 197/258/28
f 194/254/25 193/253/25 197/258/29 198/259/29
f 195/255/26 194/254/26 198/259/30 199/260/30
f 196/256/27 195/255/27 199/260/31 200/261/31
f 197/258/28 200/257/28 204/262/32 201/263/92
f 198/259/29 197/258/29 201/263/34 202/264/35
f 199/260/30 198/259/30 202/264/36 203/265/37
f 200/261/31 199/260/31 203/265/38 204/266/39
f 201/263/92 204/262/32 208/267/40 205/268/40
f 202/264/35 201/263/34 205/268/41 206/269/41
f 203/265/37 202/264/36 206/269/42 207/270/42
f 204/266/39 203/265/38 207/270/43 208/271/43
f 230/272/100 232/273/100 223/274/100 221/275/100
f 229/276/101 226/277/101 228/278/101 231/279/101
f 225/280/102 233/281/102 234/282/102 227/283/102
f 224/284/103 236/285/103 235/286/103 222/287/103
