# Blender v2.79 (sub 0) OBJ File: 'jungle_atlas_export.blend'
# www.blender.org
o Branch_01_branch01
v 0.027159 0.055462 -0.027413
v 0.281819 0.037790 -0.060684
v 0.167425 0.117940 0.258304
v -0.228619 -0.070873 0.284224
v -1.797827 3.489600 -1.864298
v -1.723777 3.480841 -1.952650
v -1.634786 3.519212 -1.976650
v -1.685159 3.563485 -1.852172
v -0.150590 1.787278 -0.397150
v 0.155650 1.045718 -0.115228
v -0.014603 0.993810 -0.080224
v -0.298199 1.738033 -0.353586
v -0.128039 1.038538 0.091299
v -0.415512 1.772328 -0.213622
v -0.223769 1.881309 -0.205636
v 0.092153 1.159194 0.105975
v -0.622805 3.062738 -0.992940
v -0.687650 3.138121 -1.066931
v -0.646662 3.095919 -1.170076
v -0.580948 3.018515 -1.099735
v -0.374187 2.033080 -0.342222
v -0.297509 1.938552 -0.541455
v -0.449707 1.886079 -0.496980
v -0.571318 1.919111 -0.351887
v -1.932508 1.811181 -0.273457
v -1.883204 1.875485 -0.371730
v -1.848742 1.933854 -0.272717
v -1.901578 1.876487 -0.168792
v -1.178131 2.774978 -1.070728
v -1.070398 2.649738 -0.947802
v -1.000859 2.576267 -1.125227
v -1.110034 2.704863 -1.242090
v -1.158136 2.596369 -1.180309
v -1.845073 3.059617 -1.535078
v -1.295443 2.622718 -1.016265
v -1.777017 3.113817 -1.538706
v -0.266813 3.896342 -1.076710
v -0.301560 3.877765 -0.964695
v -0.188528 3.862671 -0.916134
v -0.152584 3.881133 -1.032237
v -1.729694 3.076232 -1.629032
v -1.796280 3.021077 -1.628277
v -1.371494 3.113172 -1.609475
v -1.430729 3.170367 -1.461554
v -1.570707 3.100681 -1.482730
v -1.520731 3.013906 -1.398041
v -1.412090 2.995781 -1.528285
v -1.467990 3.083699 -1.604881
v -2.154250 3.562899 -1.922551
v -2.222307 3.508698 -1.918923
v -2.173514 3.470159 -2.012122
v -2.106928 3.525313 -2.012877
v -1.625511 2.291076 -0.567991
v -1.692402 2.273859 -0.647089
v -1.576053 2.245693 -0.728126
v -1.507438 2.264763 -0.646129
v -1.205263 1.915263 -0.402287
v -1.316583 1.972595 -0.436982
v -1.352657 1.928066 -0.542406
v -1.240575 1.873158 -0.516988
v -1.208118 1.942057 -0.640008
v -1.172633 1.986603 -0.526275
v -2.548195 2.260849 -0.328146
v -2.478869 2.281228 -0.223481
v -2.400887 2.279973 -0.327405
v -2.467388 2.266847 -0.426419
vt 0.938912 0.782093
vt 0.937983 0.782219
vt 0.936839 0.776493
vt 0.937865 0.776342
vt 0.871474 0.883402
vt 0.872404 0.883428
vt 0.872720 0.886279
vt 0.871923 0.886246
vt 0.939235 0.792307
vt 0.938115 0.791847
vt 0.938820 0.787425
vt 0.939705 0.787424
vt 0.936203 0.792385
vt 0.937821 0.787154
vt 0.937983 0.793132
vt 0.939922 0.796825
vt 0.938862 0.797475
vt 0.937677 0.797203
vt 0.939717 0.782111
vt 0.938456 0.776882
vt 0.939143 0.783306
vt 0.939922 0.783327
vt 0.872915 0.876121
vt 0.871898 0.876147
vt 0.871857 0.872372
vt 0.873031 0.872182
vt 0.938270 0.783116
vt 0.870696 0.872321
vt 0.870905 0.876221
vt 0.870780 0.877444
vt 0.871832 0.877254
vt 0.871433 0.882432
vt 0.870569 0.883140
vt 0.937208 0.769701
vt 0.937803 0.769429
vt 0.938115 0.770036
vt 0.937633 0.770063
vt 0.936945 0.773635
vt 0.937768 0.773518
vt 0.872124 0.907961
vt 0.872455 0.907768
vt 0.872877 0.910905
vt 0.872517 0.910952
vt 0.872916 0.877335
vt 0.872387 0.882562
vt 0.921030 0.930867
vt 0.921570 0.930699
vt 0.922097 0.935200
vt 0.921518 0.935154
vt 0.935991 0.905480
vt 0.936251 0.906228
vt 0.934162 0.905979
vt 0.933837 0.905392
vt 0.940677 0.770687
vt 0.941765 0.771085
vt 0.943353 0.773468
vt 0.942772 0.773796
vt 0.942156 0.777024
vt 0.942689 0.777139
vt 0.941550 0.779976
vt 0.940938 0.779993
vt 0.936251 0.903583
vt 0.936217 0.904175
vt 0.933968 0.904406
vt 0.934179 0.903946
vt 0.935905 0.904928
vt 0.933595 0.904967
vt 0.920121 0.928248
vt 0.921016 0.928006
vt 0.938330 0.775905
vt 0.873031 0.889126
vt 0.872366 0.889086
vt 0.871100 0.885877
vt 0.921909 0.927875
vt 0.922778 0.927851
vt 0.922718 0.930738
vt 0.922147 0.930705
vt 0.923709 0.927925
vt 0.923293 0.930663
vt 0.922652 0.934933
vt 0.923146 0.934795
vt 0.923352 0.935289
vt 0.922841 0.935432
vt 0.923709 0.934951
vt 0.937747 0.772894
vt 0.936979 0.773003
vt 0.937082 0.770153
vt 0.871218 0.886484
vt 0.871741 0.889217
vt 0.938229 0.772969
vt 0.870569 0.906715
vt 0.870969 0.906087
vt 0.871647 0.907986
vt 0.871273 0.907888
vt 0.871975 0.906226
vt 0.872572 0.906700
vt 0.873330 0.906451
vt 0.872967 0.907707
vt 0.873330 0.910850
vt 0.873329 0.911213
vt 0.872862 0.911270
vt 0.871972 0.911015
vt 0.871554 0.911055
vt 0.933342 0.904158
vt 0.933549 0.903715
vt 0.944340 0.769429
vt 0.944820 0.770199
vt 0.942121 0.773760
vt 0.942212 0.769955
vt 0.943177 0.769892
vt 0.941480 0.773395
vt 0.941066 0.772907
vt 0.941689 0.774247
vt 0.941723 0.776747
vt 0.943182 0.774222
vt 0.943157 0.776795
vt 0.943667 0.774247
vt 0.943707 0.776715
vt 0.940220 0.780024
vt 0.940529 0.779532
vt 0.940613 0.780515
vt 0.944820 0.779571
vt 0.944302 0.779514
vt 0.943937 0.779944
vn -0.0811 -0.7608 -0.6439
vn -0.5242 -0.8026 -0.2848
vn -0.5564 -0.7612 -0.3332
vn -0.2296 -0.7499 -0.6205
vn 0.8017 0.5918 0.0838
vn 0.7966 0.5978 0.0895
vn 0.7977 0.5966 0.0884
vn -0.1530 -0.0676 -0.9859
vn -0.5273 -0.0631 -0.8473
vn -0.4939 -0.2516 -0.8323
vn -0.1292 -0.2374 -0.9628
vn -0.7894 -0.0507 -0.6118
vn -0.7960 -0.2731 -0.5402
vn 0.9549 0.1212 0.2710
vn 0.9483 0.2466 0.1995
vn 0.9393 0.2997 0.1670
vn -0.0618 0.1589 0.9854
vn -0.1549 0.2441 0.9573
vn -0.1268 0.2185 0.9676
vn 0.0496 -0.6611 -0.7486
vn 0.2240 -0.5464 -0.8070
vn -0.2764 -0.7128 -0.6446
vn -0.0477 -0.5348 -0.8437
vn 0.8343 0.5507 0.0246
vn 0.8261 0.5633 0.0181
vn -0.7624 -0.4690 -0.4458
vn -0.2594 0.3783 0.8886
vn -0.2357 0.4486 0.8621
vn -0.1248 0.8070 0.5772
vn -0.3046 0.4621 0.8329
vn -0.3244 0.4802 0.8150
vn -0.3269 0.5100 0.7956
vn -0.4533 0.7660 -0.4558
vn -0.3873 -0.9142 -0.1190
vn -0.0545 -0.7669 -0.6395
vn -0.2857 0.4831 0.8277
vn -0.2672 0.5035 0.8217
vn -0.3142 0.4504 0.8357
vn 0.7132 0.6992 -0.0493
vn 0.7124 0.7000 -0.0495
vn 0.6912 0.7207 -0.0532
vn 0.7322 -0.5372 0.4187
vn 0.7169 -0.5487 0.4301
vn 0.8224 -0.4562 0.3398
vn 0.2638 0.7652 0.5872
vn 0.3039 0.9397 0.1565
vn 0.4856 0.8730 -0.0461
vn 0.2121 0.9743 0.0758
vn 0.0949 0.7904 0.6052
vn -0.1727 -0.8537 0.4913
vn -0.1832 -0.8503 0.4934
vn -0.5267 -0.6680 0.5257
vn 0.4626 0.7727 -0.4346
vn 0.2964 0.8726 -0.3881
vn -0.1933 -0.7640 -0.6156
vn -0.2853 -0.7360 -0.6139
vn -0.4465 -0.6644 -0.5993
vn 0.6156 -0.6131 0.4951
vn 0.2782 -0.5129 -0.8121
vn -0.3455 0.5128 0.7859
vn 0.7923 0.6027 0.0943
vn -0.3782 0.5227 0.7640
vn -0.3384 0.5336 0.7751
vn -0.5156 0.7015 -0.4919
vn -0.6946 0.5833 -0.4210
vn -0.6673 0.6050 -0.4343
vn -0.4289 0.3436 0.8354
vn -0.4397 0.3200 0.8392
vn 0.4624 -0.2541 -0.8495
vn 0.4590 -0.2743 -0.8450
vn 0.0583 0.9824 0.1776
vn -0.8242 0.4531 -0.3399
vn -0.5001 0.1677 0.8496
vn 0.4768 -0.1479 -0.8665
vn -0.0399 -0.6419 -0.7657
vn -0.5738 -0.7180 -0.3940
vn -0.2368 -0.7260 -0.6457
vn -0.3247 0.5282 0.7846
vn -0.3921 0.5128 0.7638
vn 0.1400 -0.6034 -0.7850
vn 0.1076 -0.6213 -0.7761
vn 0.2809 -0.4460 -0.8498
vn 0.2281 -0.4606 -0.8578
vn -0.4743 -0.8801 0.0221
vn -0.4407 -0.8969 0.0360
vn 0.0488 0.9752 -0.2160
vn 0.3823 0.9202 -0.0841
vn 0.4481 0.8923 -0.0540
vn -0.5382 0.6407 -0.5476
vn 0.7219 0.6858 0.0929
vn 0.3437 -0.4264 -0.8367
vn -0.7213 -0.6862 -0.0939
vn 0.0488 0.9648 -0.2584
vn -0.1984 -0.9545 0.2225
vn -0.0246 -0.9536 0.3000
vn -0.0677 -0.9679 -0.2420
vn 0.1432 0.9601 -0.2401
vn -0.3439 -0.7306 -0.5899
vn -0.2742 -0.7407 -0.6133
vn -0.6885 -0.4791 0.5445
vn 0.2539 0.9595 0.1222
vn 0.3479 0.7732 0.5303
vn -0.1988 0.9012 -0.3850
vn 0.1755 0.8578 -0.4831
vn 0.3325 0.9422 -0.0414
vn 0.1765 0.9371 -0.3012
vn -0.1280 0.9888 -0.0773
vn 0.1631 0.9638 0.2108
vn -0.4459 -0.7075 -0.5483
vn 0.2605 -0.9619 0.0825
s 1
f 23/1/1 24/2/2 35/3/3 33/4/4
f 29/5/5 32/6/5 43/7/6 44/8/7
f 2/9/8 1/10/9 11/11/10 10/12/11
f 1/10/9 4/13/12 13/14/13 11/11/10
f 3/15/14 2/9/14 10/16/15 16/17/16
f 4/13/17 3/15/17 16/17/18 13/18/19
f 22/19/20 23/1/1 33/4/4 31/20/21
f 12/21/22 9/22/23 10/12/11 11/11/10
f 9/23/24 15/24/25 16/25/16 10/26/15
f 14/27/26 12/21/22 11/11/10 13/14/13
f 13/28/19 16/25/18 15/24/27 14/29/28
f 24/30/29 21/31/30 30/32/31 35/33/32
f 5/34/33 8/35/33 7/36/33 6/37/33
f 33/4/4 35/3/3 46/38/34 47/39/35
f 34/40/36 36/41/37 49/42/38 50/43/38
f 21/31/39 22/44/40 31/45/41 30/32/41
f 17/46/42 20/47/43 40/48/44 39/49/44
f 58/50/45 62/51/46 56/52/47 53/53/48
f 14/29/28 15/24/27 21/31/30 24/30/29
f 9/22/23 12/21/22 23/1/1 22/19/20
f 15/24/25 9/23/24 22/44/40 21/31/39
f 14/54/28 24/55/29 62/56/46 57/57/49
f 25/58/50 28/59/51 64/60/52 63/61/52
f 62/62/46 61/63/53 55/64/54 56/65/47
f 61/63/55 59/66/56 54/67/57 55/64/57
f 30/68/58 31/69/58 20/47/43 17/46/42
f 33/4/4 32/70/59 31/20/21
f 29/5/60 35/33/32 30/32/31
f 44/8/7 43/7/6 7/71/61 8/72/61
f 35/33/32 29/5/60 44/8/62 46/73/63
f 32/74/64 29/75/64 18/76/65 19/77/66
f 29/75/60 30/78/31 17/79/67 18/76/68
f 31/69/21 32/74/59 19/77/69 20/47/70
f 37/80/71 38/81/71 39/82/71 40/83/71
f 19/77/66 18/76/65 38/81/72 37/80/72
f 18/76/68 17/79/67 39/84/73 38/81/73
f 20/47/70 19/77/69 37/80/74 40/48/74
f 48/85/75 45/86/76 5/87/76 6/37/77
f 45/88/78 44/8/62 8/72/79 5/89/79
f 43/90/80 48/85/75 6/37/77 7/36/81
f 48/85/75 43/90/80 47/39/35
f 44/8/62 45/88/78 46/73/63
f 48/91/75 47/92/35 42/93/82 41/94/83
f 32/70/59 33/4/4 47/39/35 43/90/80
f 47/92/35 46/95/34 34/40/84 42/93/85
f 45/96/86 48/97/86 41/98/87 36/41/88
f 46/95/63 45/96/78 36/41/37 34/40/36
f 49/42/89 52/99/89 51/100/89 50/101/89
f 36/41/88 41/98/87 52/99/90 49/42/90
f 41/94/83 42/93/82 51/102/91 52/103/91
f 42/93/85 34/40/84 50/43/92 51/102/92
f 54/104/93 53/105/48 56/65/47 55/64/54
f 12/106/22 14/107/94 57/57/95 60/108/96
f 24/109/29 23/110/97 61/111/53 62/112/46
f 23/110/1 12/106/22 60/108/96 61/111/55
f 59/113/56 60/108/96 25/58/98 26/114/99
f 59/113/56 61/111/55 60/108/96
f 57/57/49 62/56/46 58/115/45
f 59/66/100 58/50/100 53/53/100 54/67/100
f 57/57/49 58/115/45 27/116/101 28/59/102
f 60/108/96 57/57/95 28/59/51 25/58/50
f 58/115/103 59/117/103 26/118/104 27/116/101
f 65/119/105 66/120/106 63/61/107 64/121/108
f 27/116/101 26/118/104 66/122/106 65/123/105
f 28/59/102 27/116/101 65/123/105 64/124/108
f 26/114/99 25/58/98 63/61/109 66/120/109
f 2/9/110 3/15/110 4/13/110 1/10/110
o Moss02_moss.001
v -1.913365 1.387197 -0.215595
v -1.273271 1.415029 -0.292506
v -1.805429 1.924980 -0.134596
v -1.298836 1.929528 -0.336104
v -1.625427 1.412169 -0.236943
v -1.541809 1.911601 -0.266548
v -1.890968 1.030540 -0.245115
v -1.623198 1.032800 -0.308261
v -1.331475 1.015085 -0.349182
v -1.560518 1.021018 -0.441457
v -1.820865 0.638197 -0.189799
v -1.667861 0.638185 -0.203678
v -1.919165 1.395792 -0.292901
v -1.276033 1.396070 -0.370363
v -1.878497 1.949689 -0.370020
v -1.351536 1.944301 -0.545865
v -1.639619 1.419200 -0.313317
v -1.618666 1.921768 -0.454504
v -1.904922 1.024631 -0.321628
v -1.640938 1.024626 -0.383773
v -1.841963 1.984960 -0.252308
v -1.325186 1.984540 -0.440985
v -1.604875 1.973475 -0.362694
vt 0.106312 0.894917
vt 0.104868 0.897483
vt 0.104177 0.894215
vt 0.103496 0.897590
vt 0.102316 0.895001
vt 0.101186 0.893474
vt 0.102226 0.892482
vt 0.106238 0.892514
vt 0.107173 0.893193
vt 0.100438 0.891270
vt 0.106150 0.897455
vt 0.099932 0.891815
vt 0.138228 0.912288
vt 0.138419 0.910313
vt 0.141211 0.910642
vt 0.138355 0.908801
vt 0.141350 0.909170
vt 0.136263 0.910263
vt 0.136350 0.908806
vt 0.136163 0.912089
vt 0.136172 0.910760
vt 0.134018 0.909764
vt 0.141350 0.912160
vt 0.134111 0.908943
vt 0.102954 0.898023
vt 0.102311 0.897994
vt 0.101970 0.895200
vt 0.106699 0.894920
vt 0.107173 0.897694
vt 0.106624 0.897802
vt 0.104779 0.898124
vt 0.103679 0.898729
vt 0.103591 0.898175
vt 0.106200 0.898028
vt 0.104894 0.898612
vt 0.104250 0.893641
vt 0.100861 0.893705
vt 0.102461 0.892123
vt 0.106242 0.898575
vn 0.7416 -0.1185 0.6603
vn 0.2741 0.5213 0.8081
vn 0.2113 -0.1987 0.9570
vn -0.2472 0.4457 0.8603
vn -0.6809 -0.0562 0.7302
vn -0.6075 -0.0576 0.7922
vn 0.8964 -0.0359 0.4417
vn -0.4386 -0.8327 -0.3378
vn 0.4174 -0.8906 0.1806
vn 0.5032 -0.8413 0.1974
vn 0.7310 0.4723 0.4924
vn -0.4335 -0.8625 0.2608
vn 0.7254 -0.0802 -0.6836
vn -0.1536 -0.0862 -0.9843
vn -0.2625 0.3595 -0.8954
vn -0.7977 0.0116 -0.6029
vn -0.7230 0.4583 -0.5169
vn 0.4831 -0.1214 -0.8671
vn -0.7912 -0.1500 -0.5929
vn 0.3182 0.3827 -0.8673
vn -0.5178 0.8161 0.2566
vn 0.5759 0.8089 -0.1182
vn 0.0259 0.9994 -0.0233
s 1
f 68/125/111 72/126/112 71/127/113
f 71/127/113 69/128/114 67/129/115
f 71/127/113 73/130/116 74/131/117
f 68/125/111 76/132/118 75/133/119
f 73/130/116 78/134/120 74/131/117
f 68/125/111 70/135/121 72/126/112
f 71/127/113 72/126/112 69/128/114
f 71/127/113 67/129/115 73/130/116
f 68/125/111 71/127/113 76/132/118
f 73/130/116 77/136/122 78/134/120
f 80/137/123 83/138/124 84/139/125
f 83/138/124 79/140/126 81/141/127
f 83/138/124 86/142/128 85/143/129
f 80/137/123 75/144/119 76/145/118
f 85/143/129 86/142/128 78/146/120
f 80/137/123 84/139/125 82/147/130
f 83/138/124 81/141/127 84/139/125
f 83/138/124 85/143/129 79/140/126
f 80/137/123 76/145/118 83/138/124
f 85/143/129 78/146/120 77/148/122
f 87/149/131 81/150/127 79/151/126
f 80/152/123 82/153/130 88/154/132
f 89/155/133 81/156/127 87/157/131
f 88/158/132 84/159/125 89/155/133
f 74/131/117 83/160/124 71/127/113
f 73/130/116 79/151/126 85/161/129
f 68/125/111 75/133/119 80/152/123
f 76/132/118 71/127/113 83/160/124
f 74/131/117 78/134/120 86/162/128
f 77/136/122 73/130/116 85/161/129
f 70/135/121 89/155/133 72/126/112
f 72/126/112 87/157/131 69/128/114
f 79/151/126 67/129/115 87/149/131
f 67/129/115 69/128/114 87/149/131
f 88/154/132 70/135/121 80/152/123
f 70/135/121 68/125/111 80/152/123
f 89/155/133 84/159/125 81/156/127
f 88/158/132 82/163/130 84/159/125
f 74/131/117 86/162/128 83/160/124
f 73/130/116 67/129/115 79/151/126
f 70/135/121 88/158/132 89/155/133
f 72/126/112 89/155/133 87/157/131
o Moss03_moss
v -2.229384 1.843717 -0.310689
v -2.253326 2.149628 -0.413423
v -2.407467 1.860344 -0.383105
v -2.457712 2.275482 -0.436030
v -2.251475 1.606245 -0.299702
v -2.429888 1.607750 -0.341219
v -2.276937 1.345011 -0.353432
v -2.372316 1.345003 -0.390400
v -2.248786 1.849441 -0.262857
v -2.290519 2.148295 -0.193502
v -2.421587 1.865026 -0.333347
v -2.463541 2.260585 -0.201629
v -2.265778 1.602311 -0.249932
v -2.441636 1.602307 -0.290926
v -2.267577 2.210218 -0.302339
v -2.451608 2.334121 -0.322470
vt 0.104979 0.905864
vt 0.104658 0.904146
vt 0.105872 0.905362
vt 0.106512 0.906455
vt 0.105715 0.907012
vt 0.106740 0.908041
vt 0.103387 0.904292
vt 0.107173 0.907714
vt 0.104684 0.900861
vt 0.105637 0.901509
vt 0.104479 0.902846
vt 0.105755 0.899886
vt 0.106342 0.900428
vt 0.106768 0.898906
vt 0.103384 0.902893
vt 0.107173 0.899310
vt 0.104859 0.903414
vt 0.103231 0.903631
vt 0.104408 0.903518
vt 0.105583 0.899697
vt 0.104489 0.900633
vt 0.106564 0.900560
vt 0.105898 0.901632
vt 0.105571 0.903413
vt 0.102675 0.902659
vt 0.102528 0.902002
vn -0.4466 -0.1715 -0.8781
vn 0.7117 0.2201 -0.6671
vn 0.9367 -0.0972 -0.3363
vn 0.8961 -0.0576 -0.4400
vn -0.6070 -0.0359 -0.7939
vn -0.3631 -0.8413 -0.4004
vn -0.4496 0.4966 -0.7424
vn 0.5043 -0.8625 -0.0411
vn -0.9093 -0.0978 0.4044
vn 0.4610 -0.0421 0.8864
vn 0.4735 0.1321 0.8708
vn -0.8179 -0.1214 0.5623
vn 0.4456 -0.1500 0.8826
vn -0.5204 0.4220 0.7424
vn 0.7915 0.5993 0.1197
vn -0.3103 0.9506 0.0068
s 1
f 92/164/134 91/165/135 90/166/136
f 92/164/134 94/167/137 95/168/138
f 94/167/137 97/169/139 95/168/138
f 92/164/134 93/170/140 91/165/135
f 92/164/134 90/166/136 94/167/137
f 94/167/137 96/171/141 97/169/139
f 100/172/142 98/173/143 99/174/144
f 100/172/142 103/175/145 102/176/146
f 102/176/146 103/175/145 97/177/139
f 100/172/142 99/174/144 101/178/147
f 100/172/142 102/176/146 98/173/143
f 102/176/146 97/177/139 96/179/141
f 104/180/148 99/174/144 98/173/143
f 105/181/149 99/174/144 104/182/148
f 95/183/138 100/172/142 92/184/134
f 94/185/137 98/173/143 102/176/146
f 95/183/138 97/177/139 103/175/145
f 96/179/141 94/185/137 102/176/146
f 93/170/140 104/182/148 91/165/135
f 98/173/143 90/186/136 104/180/148
f 90/186/136 91/187/135 104/180/148
f 105/181/149 101/178/147 99/174/144
f 95/183/138 103/175/145 100/172/142
f 94/185/137 90/186/136 98/173/143
f 93/170/140 105/181/149 104/182/148
f 101/178/147 105/188/149 93/189/140
f 93/189/140 92/184/134 100/172/142
f 100/172/142 101/178/147 93/189/140
