# Blender v2.79 (sub 0) OBJ File: 'jungle_atlas_export.blend'
# www.blender.org
o Branch_03_branch03
v -0.093922 0.114142 -0.399817
v 0.117450 -0.034875 -0.075610
v -0.267764 -0.192942 -0.235094
v 0.265323 0.048912 -0.229159
v -0.525258 4.099109 -0.688622
v -0.565079 4.096446 -0.613110
v -0.486474 4.098027 -0.606126
v -0.444530 4.083130 -0.692124
v 0.329697 2.711555 0.110232
v -0.045341 1.242078 -0.119537
v -0.134273 1.154512 -0.020102
v 0.344093 2.635712 0.134692
v 0.142130 1.271866 0.129878
v 0.415608 2.610691 0.080742
v 0.403531 2.689223 0.058278
v -0.599168 3.764672 0.070132
v -0.621777 3.851949 0.022502
v -0.518372 3.873218 0.032601
v -0.485129 3.788072 0.081253
v -0.131378 1.281750 -0.002700
v -0.047512 1.356748 -0.107026
v 0.245653 1.292181 -0.067028
v -0.613287 2.205299 0.092944
v -0.559457 2.154769 0.094681
v -0.531328 2.227651 0.048797
v -0.586046 2.273473 0.054318
v -0.952875 2.137030 -0.001640
v -0.983608 2.123572 -0.071595
v -1.032642 2.022815 -0.050580
v -0.994078 2.056362 0.010771
v -0.291490 3.384219 -0.321895
v -0.438840 3.464462 -0.179327
v -0.407067 3.341806 -0.112391
v -0.091209 3.343676 -0.327613
v -0.246801 3.374691 -0.096761
v -0.293519 3.494351 -0.165134
v -0.636881 4.193461 0.450876
v -0.712471 4.177914 0.443492
v -0.695943 4.114114 0.478310
v -0.612581 4.131219 0.486439
v -0.607300 1.862284 -0.168109
v -0.552582 1.816462 -0.173630
v -0.609395 1.852753 -0.238385
v -0.657968 1.729084 -0.175458
v -0.580711 1.743580 -0.127747
v -0.634541 1.794110 -0.129483
v -0.491482 2.402298 0.394378
v -0.463353 2.475181 0.348495
v -0.545313 2.452828 0.392641
v -0.518072 2.521002 0.354015
v -1.473940 2.580441 0.492722
v -1.543835 2.609888 0.476392
v -1.608871 2.528545 0.522781
v -1.529966 2.517892 0.528884
v -0.084848 2.618411 -0.026471
v -0.052414 2.386436 0.003410
v -0.144447 2.384151 0.213431
v -0.176918 2.613517 0.184267
v 0.211198 2.430134 0.145789
v 0.176026 2.590775 0.121881
v 0.219502 2.531388 -0.053368
v 0.247745 2.366075 -0.029209
v 0.085112 4.710469 -0.307762
v 0.071508 4.764683 -0.298850
v 0.172139 4.716266 -0.349828
v 0.158534 4.770478 -0.340917
v -0.356299 5.301392 -0.532069
v -0.275572 5.285412 -0.535572
v -0.317515 5.300309 -0.449573
v -0.396121 5.298728 -0.456558
v -0.462355 4.790282 -0.709130
v -0.454044 4.845548 -0.700176
v -0.381506 4.822989 -0.691124
v -0.387108 4.785736 -0.697158
v -0.409779 4.833032 -0.633153
v -0.415381 4.795779 -0.639188
v -0.502176 4.787618 -0.633617
v -0.493865 4.842884 -0.624665
vt 0.942036 0.794847
vt 0.941599 0.795014
vt 0.941848 0.792528
vt 0.942210 0.792482
vt 0.921515 0.867666
vt 0.922005 0.867208
vt 0.924307 0.870440
vt 0.924002 0.870698
vt 0.915315 0.857717
vt 0.916570 0.856887
vt 0.920281 0.861291
vt 0.918678 0.862198
vt 0.912872 0.849712
vt 0.911209 0.849978
vt 0.915249 0.845918
vt 0.915948 0.846126
vt 0.910603 0.851885
vt 0.912798 0.851499
vt 0.914936 0.857193
vt 0.913890 0.851116
vt 0.917121 0.846704
vt 0.917471 0.856243
vt 0.920761 0.860463
vt 0.945443 0.773592
vt 0.945439 0.773248
vt 0.945735 0.773515
vt 0.916243 0.845718
vt 0.919269 0.863217
vt 0.920650 0.862044
vt 0.921658 0.866561
vt 0.920951 0.866994
vt 0.926431 0.873421
vt 0.926569 0.873170
vt 0.928039 0.874794
vt 0.927835 0.875167
vt 0.944442 0.879714
vt 0.944456 0.880147
vt 0.944084 0.880085
vt 0.944062 0.879652
vt 0.921997 0.838182
vt 0.921431 0.837432
vt 0.923927 0.835282
vt 0.924226 0.835456
vt 0.922379 0.838964
vt 0.924406 0.835734
vt 0.922974 0.866044
vt 0.924734 0.870214
vt 0.921535 0.861673
vt 0.918146 0.841367
vt 0.918960 0.841982
vt 0.915582 0.845586
vt 0.920292 0.842346
vt 0.919624 0.841112
vt 0.936623 0.906030
vt 0.936905 0.906183
vt 0.936871 0.907897
vt 0.936548 0.907775
vt 0.946362 0.773319
vt 0.946709 0.773469
vt 0.946719 0.775624
vt 0.946358 0.775562
vt 0.947072 0.773489
vt 0.947145 0.775636
vt 0.945805 0.775603
vt 0.945909 0.780083
vt 0.945394 0.779918
vt 0.947149 0.770171
vt 0.947828 0.770336
vt 0.947075 0.773370
vt 0.946737 0.773133
vt 0.941318 0.797411
vt 0.940629 0.797475
vt 0.941021 0.794989
vt 0.921012 0.837863
vt 0.919903 0.842932
vt 0.942557 0.797230
vt 0.941864 0.797059
vt 0.942514 0.794918
vt 0.940220 0.797002
vt 0.940628 0.794673
vt 0.942128 0.792111
vt 0.941757 0.792120
vt 0.942557 0.792495
vt 0.941176 0.792341
vt 0.941482 0.792480
vt 0.936959 0.903962
vt 0.937310 0.903763
vt 0.937252 0.906048
vt 0.945466 0.775678
vt 0.937584 0.903583
vt 0.937569 0.905890
vt 0.936677 0.903759
vt 0.937935 0.903776
vt 0.937973 0.906038
vt 0.937247 0.908182
vt 0.937263 0.907813
vt 0.937578 0.907717
vt 0.937559 0.908120
vt 0.937973 0.907786
vt 0.947390 0.779633
vt 0.947758 0.779470
vt 0.947828 0.779805
vt 0.947358 0.779984
vt 0.947146 0.779909
vt 0.945118 0.779651
vt 0.918755 0.840599
vt 0.942984 0.880389
vt 0.942589 0.879597
vt 0.943676 0.878322
vt 0.943867 0.877572
vt 0.944456 0.878550
vt 0.944368 0.878917
vt 0.943098 0.878994
vt 0.944292 0.879343
vt 0.946764 0.769730
vt 0.945688 0.769527
vt 0.945263 0.769979
vt 0.946465 0.769429
vt 0.925840 0.833228
vt 0.926112 0.833480
vt 0.929064 0.829827
vt 0.929293 0.829438
vt 0.929484 0.829620
vt 0.929255 0.830009
vt 0.926268 0.833303
vt 0.926013 0.833037
vt 0.927431 0.831369
vt 0.927670 0.831661
vt 0.926132 0.873644
vt 0.927522 0.875316
vt 0.927954 0.831904
vt 0.927737 0.831278
vt 0.928039 0.831472
vt 0.926374 0.833682
vt 0.926329 0.873289
vt 0.925980 0.873447
vt 0.926552 0.873108
vt 0.926492 0.833554
vt 0.932309 0.829642
vt 0.932339 0.829944
vt 0.932324 0.830122
vt 0.932308 0.830425
vt 0.929567 0.830641
vt 0.929319 0.830265
vt 0.932339 0.830600
vt 0.929530 0.830902
vn -0.9555 -0.2863 -0.0712
vn -0.9431 -0.3100 -0.1204
vn -0.9666 -0.2559 -0.0101
vn -0.1545 0.5440 0.8248
vn -0.0896 0.3162 0.9444
vn -0.0837 0.2954 0.9517
vn -0.3429 -0.1321 0.9300
vn -0.2440 -0.1107 0.9634
vn 0.0088 0.0677 0.9977
vn 0.0351 0.0284 0.9990
vn -0.8143 0.1709 -0.5547
vn -0.6650 -0.0925 -0.7411
vn -0.5550 -0.2242 -0.8011
vn -0.3781 -0.1228 0.9176
vn -0.4055 -0.1284 0.9050
vn 0.3836 -0.3099 -0.8699
vn 0.3845 -0.3436 -0.8568
vn 0.3082 0.1938 -0.9314
vn 0.1748 0.1207 -0.9772
vn 0.8213 -0.0830 0.5645
vn 0.8844 -0.0609 0.4627
vn 0.8826 -0.0616 0.4661
vn 0.8713 -0.2298 0.4336
vn 0.8067 -0.3525 0.4743
vn 0.4920 0.7193 -0.4904
vn 0.5173 0.5035 -0.6920
vn 0.5782 0.7350 -0.3542
vn 0.2794 0.2245 -0.9335
vn 0.1196 0.2716 0.9549
vn 0.2722 0.3178 0.9082
vn 0.5657 0.3525 0.7455
vn 0.0337 -0.0642 0.9974
vn 0.1360 -0.3218 0.9370
vn 0.8198 -0.3422 0.4591
vn 0.4312 -0.3967 0.8104
vn 0.6238 0.3233 0.7116
vn 0.3195 0.2806 0.9051
vn 0.4054 0.0005 0.9141
vn 0.7138 -0.1623 0.6813
vn -0.4879 -0.4840 -0.7264
vn -0.8304 -0.4224 -0.3632
vn -0.8351 -0.2588 -0.4854
vn -0.5118 -0.2245 -0.8292
vn -0.1459 -0.4149 -0.8981
vn -0.0558 -0.3075 -0.9499
vn 0.8125 0.4983 0.3026
vn 0.7897 0.5046 0.3489
vn 0.8643 0.2505 0.4362
vn 0.8608 0.2649 0.4346
vn 0.8280 0.4733 0.3005
vn -0.8968 -0.0609 -0.4382
vn -0.5560 -0.0617 -0.8289
vn -0.8776 0.0654 -0.4750
vn 0.1626 -0.1735 -0.9713
vn -0.5596 -0.3371 -0.7571
vn 0.3555 0.5182 -0.7779
vn 0.4091 0.5739 -0.7094
vn 0.4635 0.6287 -0.6244
vn -0.3594 -0.4354 0.8254
vn -0.3520 -0.5071 0.7867
vn -0.1915 -0.7485 0.6349
vn -0.2019 -0.7223 0.6614
vn 0.4562 0.0936 0.8849
vn 0.5470 -0.0396 0.8362
vn 0.5354 -0.0213 0.8443
vn -0.5586 0.0005 -0.8294
vn -0.5448 -0.0178 -0.8384
vn -0.6414 0.1214 -0.7575
vn 0.3499 0.5239 0.7766
vn -0.3892 -0.2704 -0.8806
vn -0.3587 -0.3322 -0.8723
vn 0.0373 -0.5715 0.8197
vn 0.0441 -0.5960 0.8018
vn -0.8167 -0.4124 -0.4036
vn 0.1062 -0.0389 -0.9936
vn -0.0077 0.4591 -0.8884
vn -0.0568 0.6399 -0.7664
vn -0.0506 0.6185 -0.7842
vn 0.9204 0.3879 0.0500
vn 0.9060 0.4112 0.1006
vn -0.1757 0.4360 0.8827
vn -0.0989 0.7764 -0.6224
vn 0.9334 0.3586 -0.0101
vn 0.0888 -0.7462 0.6598
vn -0.4282 -0.2884 0.8564
vn -0.9334 0.2068 -0.2932
vn -0.9433 0.2600 -0.2063
vn -0.9445 0.2923 -0.1501
vn 0.4699 0.8357 -0.2843
vn 0.4549 0.8398 -0.2963
vn -0.4739 -0.4795 0.7386
vn -0.5141 -0.5243 0.6788
vn 0.9432 -0.1945 0.2694
vn 0.9501 -0.2793 0.1388
vn 0.9503 -0.2501 0.1853
vn 0.3597 0.3716 0.8559
vn -0.5577 -0.5735 0.6001
vn 0.9429 -0.3280 0.0570
vn -0.9389 0.3378 -0.0660
vn 0.2664 0.2710 0.9250
vn 0.3925 0.1387 0.9092
vn 0.0027 0.4959 0.8684
vn -0.1613 -0.8144 0.5574
vn 0.4151 0.8491 -0.3267
vn -0.8623 -0.2828 -0.4200
vn 0.5798 -0.0595 -0.8126
vn -0.4579 0.7347 -0.5006
vn -0.8785 0.1343 -0.4585
vn -0.8782 0.1369 -0.4583
vn 0.4369 -0.0381 0.8987
vn -0.8564 0.2666 -0.4422
vn -0.8542 0.2761 -0.4407
vn -0.8373 0.3380 -0.4297
vn 0.0361 -0.2620 0.9644
vn -0.0094 -0.3543 0.9351
vn 0.0906 0.9954 -0.0295
vn 0.1054 0.0522 -0.9931
vn 0.2514 0.0998 -0.9627
vn -0.1646 -0.1184 0.9792
vn 0.0283 -0.0519 0.9983
vn 0.8918 -0.0697 0.4470
vn 0.1367 0.2269 -0.9643
vn 0.2842 0.2094 -0.9356
vn -0.0989 -0.9925 -0.0719
vn 0.1117 0.3082 -0.9447
vn 0.0824 0.9952 0.0527
vn 0.5412 0.1815 -0.8211
vn -0.5712 -0.1808 0.8006
vn 0.3452 -0.7469 -0.5683
s 1
f 17/1/1 16/2/2 39/3/3 38/4/3
f 32/5/4 36/6/4 7/7/5 6/8/6
f 20/9/7 13/10/8 59/11/9 57/12/10
f 1/13/11 3/14/11 11/15/12 10/16/13
f 3/17/14 2/18/14 13/10/8 11/19/15
f 4/20/16 1/13/17 10/16/18 22/21/19
f 2/18/20 4/20/20 22/22/21 13/10/22
f 62/23/23 59/11/24 13/10/22 22/22/21
f 41/24/25 42/25/26 43/26/27
f 21/27/28 22/21/19 10/16/18
f 58/28/29 60/29/30 35/30/31 33/31/32
f 75/32/33 73/33/34 68/34/34 69/35/35
f 15/36/36 9/37/37 12/38/38 14/39/39
f 31/40/40 32/41/41 6/42/42 5/43/43
f 34/44/44 31/40/40 5/43/43 8/45/45
f 36/6/46 34/46/47 8/47/48 7/7/49
f 60/29/30 61/48/50 34/46/47 35/30/31
f 11/19/15 13/10/8 20/9/7
f 57/49/51 56/50/52 21/27/53 20/51/53
f 61/52/54 55/53/55 31/40/40 34/44/44
f 25/54/56 26/55/57 50/56/58 48/57/58
f 44/58/59 46/59/60 30/60/61 29/61/62
f 46/59/63 41/62/63 27/63/64 30/60/65
f 28/64/66 29/61/67 53/65/68 52/66/68
f 20/67/69 21/68/69 42/69/69 45/70/69
f 43/26/70 44/58/71 29/61/67 28/64/66
f 33/71/32 35/72/31 19/73/72 16/2/73
f 32/41/41 31/40/40 33/74/74
f 34/46/47 36/6/46 35/30/31
f 56/50/52 62/75/75 22/21/19 21/27/28
f 36/76/76 32/77/76 17/1/77 18/78/78
f 32/77/41 33/71/74 16/2/2 17/1/1
f 35/72/31 36/79/46 18/80/79 19/73/80
f 37/81/81 38/4/81 39/3/81 40/82/81
f 18/78/78 17/1/77 38/4/82 37/83/82
f 19/73/80 18/80/79 37/84/83 40/85/83
f 16/2/73 19/73/72 40/85/84 39/3/84
f 46/59/60 44/58/59 45/70/85
f 41/86/86 46/87/86 23/88/87 26/55/88
f 41/24/25 43/26/27 28/64/89 27/89/90
f 46/87/60 45/90/85 24/91/91 23/88/92
f 42/92/26 41/86/25 26/55/57 25/54/56
f 45/90/93 42/93/93 25/94/94 24/91/95
f 50/95/96 49/96/96 47/97/96 48/98/96
f 23/88/92 24/91/91 47/97/97 49/96/97
f 24/91/95 25/94/94 48/99/98 47/97/98
f 26/55/88 23/88/87 49/96/99 50/56/99
f 54/100/100 51/101/101 52/102/102 53/103/102
f 29/61/62 30/60/61 54/100/103 53/104/103
f 27/89/90 28/64/89 52/66/104 51/105/104
f 30/60/65 27/63/64 51/101/101 54/100/100
f 58/106/105 55/53/55 56/50/52 57/49/51
f 55/53/55 61/52/54 62/75/75 56/50/52
f 60/29/30 58/28/29 57/12/10 59/11/9
f 59/107/24 62/108/23 14/39/39 12/38/38
f 55/53/55 58/106/105 33/74/74 31/40/40
f 60/109/30 59/110/9 12/111/38 9/112/37
f 62/108/75 61/113/54 15/114/106 14/39/106
f 61/113/107 60/109/107 9/112/107 15/114/107
f 11/115/15 20/67/7 45/70/85 44/58/59
f 10/116/18 43/26/27 42/25/26 21/117/28
f 10/116/13 11/118/12 44/58/71 43/26/70
f 5/43/43 6/42/42 77/119/108 71/120/109
f 66/121/110 64/122/110 63/123/110 65/124/110
f 72/125/111 78/126/112 70/127/113 67/128/113
f 78/129/114 75/32/33 69/35/35 70/130/115
f 68/131/116 67/128/116 70/132/116 69/133/116
f 8/45/45 5/43/43 71/120/117 74/134/118
f 6/8/6 7/7/5 76/135/119 77/136/120
f 7/7/49 8/47/48 74/137/121 76/135/121
f 72/125/122 73/138/123 74/134/118 71/120/117
f 76/139/124 74/140/124 65/124/124 63/123/124
f 78/126/112 72/125/111 71/120/109 77/119/108
f 77/136/120 76/135/119 75/32/33 78/129/114
f 73/138/123 72/125/122 67/128/125 68/131/125
f 73/141/126 75/142/126 64/143/126 66/144/126
f 74/140/118 73/141/123 66/144/127 65/124/127
f 75/142/33 76/145/119 63/146/128 64/143/128
f 4/20/16 2/18/129 3/14/129 1/13/17
