# Blender v2.79 (sub 0) OBJ File: 'jungle_atlas_export.blend'
# www.blender.org
g Palm_02_leaf_Circle.049
v 0.058516 -2.247892 -0.402570
v -0.005461 -2.293120 -0.393548
v 0.124590 -2.298573 -0.395640
v -0.001044 -1.666713 -0.350594
v 0.051936 -1.662194 -0.336432
v -0.007386 -1.638760 -0.273224
v -0.054470 -1.662553 -0.348615
v 0.059300 -2.280522 -0.305157
v -0.002143 1.338367 -0.336421
v 0.016527 1.339978 -0.331725
v -0.004378 1.348348 -0.311155
v -0.020971 1.339850 -0.335984
v -0.037720 -0.180691 -0.119495
v -0.005882 -0.164464 -0.070633
v 0.034232 -0.180443 -0.111347
v -0.001594 -0.183518 -0.120615
v -0.005130 0.603384 -0.139338
v 0.025379 0.591129 -0.168736
v -0.001868 0.588764 -0.175383
v -0.029345 0.590942 -0.174953
v -0.004754 0.974628 -0.164948
v 0.020953 0.964274 -0.189313
v -0.002006 0.962280 -0.194872
v -0.025158 0.964114 -0.194502
v -0.002023 -1.662561 -0.348495
v -0.004251 1.863693 -0.607225
v -0.002023 -0.186492 -0.092465
v -0.002023 -0.491516 -0.096650
v -0.002023 -0.783134 -0.147439
v -0.002023 -1.083192 -0.191705
v -0.002023 -1.370265 -0.281444
v -0.002023 0.112993 -0.098107
v -0.002023 0.465772 -0.137156
v -0.002023 0.898204 -0.163136
v -0.002023 1.214636 -0.279035
v 0.659410 -1.174997 -0.139546
v -0.648110 -1.175361 -0.151656
v -0.689991 0.304536 0.036967
v 0.688034 0.304815 0.044993
v -0.722531 -0.001715 0.060271
v -0.784823 -0.294145 0.025699
v -0.714798 -0.596045 0.005954
v -0.766697 -0.883392 -0.077751
v 0.645945 0.606723 -0.002071
v 0.552549 0.940102 -0.081389
v 0.438651 1.263139 -0.139114
v 0.284241 1.542418 -0.304978
v -0.292492 1.546838 -0.309269
v -0.457097 1.262582 -0.143226
v -0.653977 0.606524 -0.008647
v 0.775040 -0.883023 -0.066670
v 0.720183 -0.595721 0.016389
v 0.787174 -0.293817 0.035307
v -0.379738 1.418824 -0.225081
v -0.002023 1.078881 -0.216491
v 0.361778 1.416231 -0.220736
v 0.049021 1.892728 -0.606098
v -0.002023 1.288837 -0.303266
v -0.057983 1.894063 -0.607315
v -0.514509 1.063036 -0.103016
v -0.002023 0.697352 -0.146131
v 0.495156 1.066254 -0.098672
v -0.002023 1.251747 -0.291320
v -0.210043 1.761967 -0.460853
v 0.202247 1.758550 -0.457575
v 0.729056 -0.029913 0.065898
v 0.719489 0.027619 0.066902
v -0.556115 0.968298 -0.090376
v -0.576445 0.909503 -0.079520
v -0.002023 -1.662561 -0.348495
v -0.004251 1.863693 -0.607225
v -0.002023 -0.186492 -0.092465
v -0.002023 -0.491516 -0.096650
v -0.002023 -0.783134 -0.147439
v -0.002023 -1.083192 -0.191705
v -0.002023 -1.370265 -0.281444
v -0.002023 0.112993 -0.098107
v -0.002023 0.465772 -0.137156
v -0.002023 0.898204 -0.163136
v -0.002023 1.214636 -0.279035
v 0.659410 -1.174997 -0.139546
v -0.648110 -1.175361 -0.151656
v -0.689991 0.304536 0.036967
v 0.688034 0.304815 0.044993
v -0.722531 -0.001715 0.060271
v -0.784823 -0.294145 0.025699
v -0.714798 -0.596045 0.005954
v -0.766697 -0.883392 -0.077751
v 0.645945 0.606723 -0.002071
v 0.552549 0.940102 -0.081389
v 0.438651 1.263139 -0.139114
v 0.284241 1.542418 -0.304978
v -0.292492 1.546838 -0.309269
v -0.457097 1.262582 -0.143226
v -0.653977 0.606524 -0.008647
v 0.775040 -0.883023 -0.066670
v 0.720183 -0.595721 0.016389
v 0.787174 -0.293817 0.035307
v -0.379738 1.418824 -0.225081
v -0.002023 1.078881 -0.216491
v 0.361778 1.416231 -0.220736
v 0.049021 1.892728 -0.606098
v -0.002023 1.288837 -0.303266
v -0.057983 1.894063 -0.607315
v -0.514509 1.063036 -0.103016
v -0.002023 0.697352 -0.146131
v 0.495156 1.066254 -0.098672
v -0.002023 1.251747 -0.291320
v -0.210043 1.761967 -0.460853
v 0.202247 1.758550 -0.457575
v 0.729056 -0.029913 0.065898
v 0.719489 0.027619 0.066902
v -0.556115 0.968298 -0.090376
v -0.576445 0.909503 -0.079520
vt 0.946994 0.907217
vt 0.947134 0.906822
vt 0.950106 0.906613
vt 0.949986 0.907123
vt 0.947132 0.907612
vt 0.950049 0.907646
vt 0.420327 0.884698
vt 0.416830 0.884602
vt 0.416842 0.884342
vt 0.420297 0.884376
vt 0.416849 0.884057
vt 0.420341 0.884061
vt 0.442966 0.884476
vt 0.430047 0.884450
vt 0.430190 0.883971
vt 0.443243 0.883751
vt 0.443205 0.885213
vt 0.430195 0.884942
vt 0.423544 0.884405
vt 0.423635 0.884023
vt 0.423624 0.884787
vt 0.334308 0.915157
vt 0.327960 0.911307
vt 0.328220 0.908677
vt 0.334156 0.912562
vt 0.333721 0.902094
vt 0.333092 0.896415
vt 0.333554 0.896608
vt 0.334702 0.928192
vt 0.328813 0.923820
vt 0.327751 0.921235
vt 0.334642 0.925598
vt 0.328947 0.905713
vt 0.333978 0.909486
vt 0.339623 0.908011
vt 0.340132 0.910597
vt 0.328135 0.918647
vt 0.334581 0.922994
vt 0.333908 0.907500
vt 0.329383 0.904597
vt 0.329768 0.902882
vt 0.333845 0.905739
vt 0.334521 0.920351
vt 0.327567 0.916032
vt 0.328040 0.913733
vt 0.334462 0.917787
vt 0.333787 0.904071
vt 0.330400 0.901429
vt 0.331072 0.900145
vt 0.333743 0.902749
vt 0.340587 0.913217
vt 0.333732 0.902418
vt 0.335392 0.897802
vt 0.336259 0.899921
vt 0.341207 0.915740
vt 0.337092 0.901167
vt 0.337825 0.902599
vt 0.340727 0.918378
vt 0.338721 0.905408
vt 0.341207 0.920948
vt 0.340238 0.923581
vt 0.331793 0.897961
vt 0.334004 0.896370
vt 0.338338 0.904303
vt 0.327808 0.913712
vt 0.338712 0.905117
vt 0.334308 0.915157
vt 0.334156 0.912562
vt 0.328220 0.908677
vt 0.327960 0.911307
vt 0.333721 0.902094
vt 0.333554 0.896608
vt 0.333092 0.896415
vt 0.334702 0.928192
vt 0.334642 0.925598
vt 0.327751 0.921235
vt 0.328813 0.923820
vt 0.333978 0.909486
vt 0.328947 0.905713
vt 0.340132 0.910597
vt 0.339623 0.908011
vt 0.334581 0.922994
vt 0.328135 0.918647
vt 0.333908 0.907500
vt 0.333845 0.905739
vt 0.329768 0.902882
vt 0.329383 0.904597
vt 0.334521 0.920351
vt 0.334462 0.917787
vt 0.328040 0.913733
vt 0.327567 0.916032
vt 0.333787 0.904071
vt 0.333743 0.902749
vt 0.331072 0.900145
vt 0.330400 0.901429
vt 0.340587 0.913217
vt 0.333732 0.902418
vt 0.336259 0.899921
vt 0.335392 0.897802
vt 0.341207 0.915740
vt 0.337825 0.902599
vt 0.337092 0.901167
vt 0.340727 0.918378
vt 0.338721 0.905408
vt 0.341207 0.920948
vt 0.340238 0.923581
vt 0.331793 0.897961
vt 0.334004 0.896370
vt 0.338338 0.904303
vt 0.327808 0.913712
vt 0.338712 0.905117
vt 0.950106 0.908266
vt 0.947136 0.908111
vt 0.947158 0.907857
vt 0.949858 0.907970
vt 0.420320 0.885110
vt 0.416828 0.884926
vt 0.416834 0.884760
vt 0.420335 0.884902
vt 0.443243 0.885668
vt 0.430210 0.885258
vt 0.443191 0.886136
vt 0.430170 0.885575
vt 0.423633 0.885021
vt 0.423608 0.885261
vn -0.7815 -0.0408 -0.6226
vn 0.8096 0.1085 -0.5769
vn 0.8412 -0.1982 -0.5030
vn -0.7222 -0.2520 -0.6442
vn -0.7001 0.0985 -0.7072
vn 0.8305 0.0755 -0.5518
vn -0.7154 -0.0608 -0.6961
vn 0.8398 -0.0486 -0.5407
vn -0.7004 -0.0480 -0.7122
vn 0.8308 -0.0388 -0.5552
vn -0.2211 0.0698 0.9727
vn -0.2634 0.4501 0.8532
vn -0.1479 -0.2026 0.9680
vn -0.2303 0.1349 0.9637
vn 0.2110 0.0704 0.9749
vn -0.0776 -0.2940 0.9527
vn -0.1667 0.1177 0.9790
vn -0.1246 -0.1566 0.9798
vn -0.2007 -0.0801 0.9764
vn -0.3471 0.3782 0.8582
vn 0.2121 0.0193 0.9771
vn 0.3724 0.4170 0.8292
vn 0.1141 -0.1556 0.9812
vn 0.2700 0.3046 0.9134
vn 0.1890 -0.0821 0.9785
vn 0.2198 0.1359 0.9660
vn 0.0653 -0.2938 0.9536
vn 0.1323 -0.2070 0.9694
vn 0.3265 0.3747 0.8677
vn -0.2859 0.3019 0.9094
vn -0.3752 0.4325 0.8199
vn 0.2545 0.4528 0.8545
vn 0.1531 0.1182 0.9811
vn -0.1376 0.0505 0.9892
vn 0.3698 0.4359 0.8205
vn -0.3814 0.4145 0.8263
vn -0.2207 0.0178 0.9752
vn 0.1241 0.0498 0.9910
vn 0.2211 -0.0698 -0.9727
vn 0.2634 -0.4501 -0.8532
vn 0.1479 0.2026 -0.9680
vn 0.2303 -0.1349 -0.9637
vn -0.2110 -0.0704 -0.9749
vn 0.0776 0.2940 -0.9527
vn 0.1667 -0.1177 -0.9790
vn 0.1246 0.1566 -0.9798
vn 0.2007 0.0801 -0.9764
vn 0.3471 -0.3782 -0.8582
vn -0.2121 -0.0193 -0.9771
vn -0.3724 -0.4170 -0.8292
vn -0.1141 0.1556 -0.9812
vn -0.2700 -0.3046 -0.9134
vn -0.1890 0.0821 -0.9785
vn -0.2198 -0.1359 -0.9660
vn -0.0653 0.2938 -0.9536
vn -0.1323 0.2070 -0.9694
vn -0.3265 -0.3747 -0.8677
vn 0.2859 -0.3019 -0.9094
vn 0.3752 -0.4325 -0.8199
vn -0.2545 -0.4528 -0.8545
vn -0.1531 -0.1182 -0.9811
vn 0.1376 -0.0505 -0.9892
vn -0.3698 -0.4359 -0.8205
vn 0.3814 -0.4145 -0.8263
vn 0.2207 -0.0178 -0.9752
vn -0.1241 -0.0498 -0.9910
vn -0.9925 -0.1220 0.0050
vn -0.9400 -0.1173 0.3203
vn -0.0727 -0.1196 0.9901
vn -0.0593 -0.0929 0.9939
vn 0.8982 -0.0199 0.4390
vn 0.9857 0.0646 0.1556
vn -0.9823 0.0412 0.1829
vn -0.9630 0.0862 0.2551
vn -0.1011 0.3502 0.9312
vn -0.1108 0.1979 0.9739
vn 0.8972 0.1475 0.4162
vn 0.9207 0.0836 0.3813
vn -0.1122 -0.0472 0.9926
vn 0.9115 -0.0096 0.4112
vn -0.9784 0.0016 0.2065
vn -0.1109 0.0616 0.9919
vn 0.8834 0.0175 0.4681
vn -0.9622 0.0043 0.2724
s off
f 6/1/1 5/2/1 3/3/1 8/4/1
f 7/5/2 6/1/2 8/4/2 2/6/2
f 24/7/3 12/8/3 11/9/3 21/10/3
f 21/10/4 11/9/4 10/11/4 22/12/4
f 6/13/5 14/14/5 15/15/5 5/16/5
f 7/17/6 13/18/6 14/14/6 6/13/6
f 14/14/7 17/19/7 18/20/7 15/15/7
f 13/18/8 20/21/8 17/19/8 14/14/8
f 17/19/9 21/10/9 22/12/9 18/20/9
f 20/21/10 24/7/10 21/10/10 17/19/10
f 27/22/11 39/23/11 44/24/11 32/25/11
f 58/26/12 57/27/12 26/28/12
f 25/29/13 36/30/13 51/31/13 31/32/13
f 32/25/14 44/24/14 45/33/14 33/34/14
f 32/25/15 50/35/15 38/36/15 27/22/15
f 31/32/16 51/31/16 52/37/16 30/38/16
f 61/39/17 62/40/17 46/41/17 34/42/17
f 29/43/18 53/44/18 66/45/18 28/46/18
f 30/38/19 52/37/19 53/44/19 29/43/19
f 55/47/20 56/48/20 47/49/20 35/50/20
f 27/22/21 38/36/21 40/51/21 28/46/21
f 63/52/22 64/53/22 48/54/22 35/50/22
f 28/46/23 40/51/23 41/55/23 29/43/23
f 55/47/24 54/56/24 49/57/24 34/42/24
f 29/43/25 41/55/25 42/58/25 30/38/25
f 33/34/26 69/59/26 50/35/26 32/25/26
f 30/38/27 42/58/27 43/60/27 31/32/27
f 31/32/28 43/60/28 37/61/28 25/29/28
f 35/50/29 48/54/29 54/56/29 55/47/29
f 34/42/30 46/41/30 56/48/30 55/47/30
f 63/52/31 65/62/31 57/27/31 58/26/31
f 26/28/32 59/63/32 58/26/32
f 34/42/33 49/57/33 60/64/33 61/39/33
f 33/34/34 45/33/34 62/40/34 61/39/34
f 58/26/35 59/63/35 64/53/35 63/52/35
f 35/50/36 47/49/36 65/62/36 63/52/36
f 28/46/37 67/65/37 39/23/37 27/22/37
f 61/39/38 60/64/38 68/66/38 33/34/38
f 72/67/39 77/68/39 89/69/39 84/70/39
f 103/71/40 71/72/40 102/73/40
f 70/74/41 76/75/41 96/76/41 81/77/41
f 77/68/42 78/78/42 90/79/42 89/69/42
f 77/68/43 72/67/43 83/80/43 95/81/43
f 76/75/44 75/82/44 97/83/44 96/76/44
f 106/84/45 79/85/45 91/86/45 107/87/45
f 74/88/46 73/89/46 111/90/46 98/91/46
f 75/82/47 74/88/47 98/91/47 97/83/47
f 100/92/48 80/93/48 92/94/48 101/95/48
f 72/67/49 73/89/49 85/96/49 83/80/49
f 108/97/50 80/93/50 93/98/50 109/99/50
f 73/89/51 74/88/51 86/100/51 85/96/51
f 100/92/52 79/85/52 94/101/52 99/102/52
f 74/88/53 75/82/53 87/103/53 86/100/53
f 78/78/54 77/68/54 95/81/54 114/104/54
f 75/82/55 76/75/55 88/105/55 87/103/55
f 76/75/56 70/74/56 82/106/56 88/105/56
f 80/93/57 100/92/57 99/102/57 93/98/57
f 79/85/58 100/92/58 101/95/58 91/86/58
f 108/97/59 103/71/59 102/73/59 110/107/59
f 71/72/60 103/71/60 104/108/60
f 79/85/61 106/84/61 105/109/61 94/101/61
f 78/78/62 106/84/62 107/87/62 90/79/62
f 103/71/63 108/97/63 109/99/63 104/108/63
f 80/93/64 108/97/64 110/107/64 92/94/64
f 73/89/65 72/67/65 84/70/65 112/110/65
f 106/84/66 78/78/66 113/111/66 105/109/66
s 1
f 3/112/67 5/113/68 4/114/69 1/115/70
f 1/115/70 4/114/69 7/5/71 2/6/72
f 22/116/73 10/117/74 9/118/75 23/119/76
f 23/119/76 9/118/75 12/8/77 24/7/78
f 4/120/69 16/121/79 13/18/80 7/17/71
f 5/122/68 15/123/81 16/121/79 4/120/69
f 16/121/79 19/124/82 20/21/83 13/18/80
f 15/123/81 18/125/84 19/124/82 16/121/79
f 19/124/82 23/119/76 24/7/78 20/21/83
f 18/125/84 22/116/73 23/119/76 19/124/82
