# Blender v2.79 (sub 0) OBJ File: 'jungle_atlas_export.blend'
# www.blender.org
o rock_med_03_Cube.007
v 0.400209 -0.415441 0.164188
v -0.232631 0.535639 0.228199
v -0.123483 -0.070841 -0.359502
v 0.246795 -0.415441 -0.359503
v 0.057783 -1.021921 0.108842
v 0.109796 0.797521 0.283546
v -0.325294 0.535639 0.014036
v 0.218945 0.191040 0.372948
v -0.312495 -0.677322 0.108842
v -0.123482 -0.070841 0.317602
v -0.312496 -0.677322 -0.261436
v -0.212271 0.535639 -0.179766
v 0.404083 0.191040 -0.119017
v 0.057782 -1.021921 -0.261436
v 0.130155 0.797521 -0.124420
v 0.017132 0.797521 0.069383
v 0.282244 -0.870301 0.168963
v 0.486784 -0.112200 0.014654
v 0.231948 0.645901 0.324055
v 0.055663 -0.026050 0.429913
v -0.173641 -0.935772 0.155127
v -0.405065 -0.591173 -0.076297
v -0.173642 -0.935772 -0.307721
v -0.055323 0.732051 -0.191797
v 0.062625 -0.177671 -0.430304
v 0.243890 -0.870301 -0.332238
v 0.283322 0.645901 -0.131048
v -0.080773 0.732051 0.318160
v -0.196602 0.732051 0.050456
v -0.310946 0.470169 -0.083633
v -0.331306 0.470169 0.094213
v 0.301645 -0.112200 0.276500
v -0.218957 -0.439552 0.207317
v -0.196085 0.318549 0.254872
v -0.218958 -0.439552 -0.332237
v -0.190996 0.318549 -0.246515
v 0.333371 -0.112200 -0.231328
v 0.057783 -1.021921 -0.076297
v 0.117087 0.797521 -0.014450
v 0.096727 0.797521 0.163396
v 0.423265 -0.779329 -0.084842
v 0.397870 0.629054 0.097254
v 0.052988 -0.710409 0.346802
v 0.021750 0.526158 0.394102
v 0.001137 -0.724709 -0.430936
v 0.079230 0.502552 -0.299469
v -0.266211 -0.914234 -0.076297
v -0.403691 0.013277 -0.055784
v -0.168467 0.715683 0.172087
v -0.139199 0.715683 -0.069185
vt 0.898139 0.393405
vt 0.900050 0.392049
vt 0.905096 0.393128
vt 0.900135 0.394194
vt 0.896566 0.395936
vt 0.895155 0.394313
vt 0.895472 0.392198
vt 0.904152 0.398497
vt 0.902677 0.398089
vt 0.904062 0.396443
vt 0.905520 0.397175
vt 0.928582 0.362056
vt 0.930237 0.361628
vt 0.929713 0.362584
vt 0.927825 0.362925
vt 0.903562 0.399644
vt 0.900412 0.400102
vt 0.899592 0.402451
vt 0.897506 0.401649
vt 0.902107 0.402081
vt 0.903047 0.403962
vt 0.898839 0.403573
vt 0.895620 0.402835
vt 0.897287 0.404628
vt 0.899194 0.405686
vt 0.894697 0.406602
vt 0.894282 0.404348
vt 0.930458 0.411466
vt 0.930797 0.413035
vt 0.929334 0.413680
vt 0.929274 0.411497
vt 0.929148 0.408695
vt 0.930797 0.409725
vt 0.893996 0.395957
vt 0.894789 0.397606
vt 0.931580 0.361853
vt 0.931502 0.362654
vt 0.906036 0.395793
vt 0.904881 0.395064
vt 0.906682 0.395168
vt 0.903926 0.400274
vt 0.903361 0.400884
vt 0.928166 0.363500
vt 0.929615 0.363333
vt 0.929791 0.364123
vt 0.927870 0.364208
vt 0.902043 0.395068
vt 0.900657 0.396038
vt 0.896514 0.398527
vt 0.896950 0.399730
vt 0.894729 0.399450
vt 0.898008 0.397875
vt 0.900283 0.397271
vt 0.896224 0.400775
vt 0.894337 0.401264
vt 0.903658 0.401939
vt 0.928584 0.364893
vt 0.930232 0.364983
vt 0.904829 0.403296
vt 0.901186 0.406386
vt 0.904050 0.405576
vt 0.904306 0.407289
vt 0.899262 0.407640
vt 0.928090 0.411531
vt 0.927838 0.413117
vt 0.893268 0.402792
vt 0.927593 0.410011
vt 0.905233 0.404712
vt 0.931580 0.364667
vt 0.931571 0.363929
vt 0.905762 0.405314
vt 0.930994 0.363290
vt 0.906682 0.405412
vt 0.906585 0.406281
vn 0.8159 0.0388 0.5769
vn 0.5465 -0.1313 0.8271
vn 0.9213 -0.1782 0.3457
vn -0.5455 0.0239 0.8378
vn -0.8080 0.4175 0.4157
vn -0.7941 -0.0683 0.6039
vn -0.7164 0.1044 -0.6899
vn -0.2878 0.1998 -0.9366
vn -0.3568 0.0340 -0.9336
vn 0.5603 0.1555 -0.8136
vn 0.8271 -0.0229 -0.5617
vn 0.3323 -0.0464 -0.9420
vn -0.3276 -0.9445 0.0240
vn 0.5552 -0.8317 0.0060
vn 0.0628 -0.6052 0.7936
vn -0.3023 0.9516 0.0559
vn 0.0799 0.3538 0.9319
vn 0.5963 0.7705 0.2253
vn -0.9804 0.1621 -0.1122
vn -0.8325 0.4757 0.2842
vn -0.7182 0.5389 -0.4401
vn 0.8098 0.0377 0.5855
vn 0.2501 0.0863 0.9644
vn 0.4960 -0.1163 0.8605
vn -0.8733 -0.3943 0.2862
vn -0.5492 -0.1369 0.8244
vn -0.8404 0.0182 0.5417
vn -0.5247 -0.1062 0.8446
vn -0.5467 0.0257 0.8369
vn -0.8012 -0.0134 0.5983
vn -0.4838 -0.0872 -0.8708
vn -0.8733 -0.3943 -0.2862
vn -0.8237 0.0592 -0.5639
vn -0.7446 0.1169 -0.6572
vn -0.7321 0.5467 -0.4064
vn -0.3465 0.2339 -0.9084
vn 0.5826 0.1443 -0.7998
vn 0.9221 0.1818 -0.3417
vn 0.8485 -0.0019 -0.5292
vn -0.3276 -0.9445 -0.0240
vn 0.0260 -0.4915 -0.8705
vn 0.5738 -0.8163 -0.0663
vn 0.2684 0.4569 -0.8480
vn -0.3012 0.9518 -0.0586
vn 0.6098 0.7794 -0.1441
vn -0.2496 0.9305 -0.2679
vn -0.2913 0.9319 0.2162
vn 0.4014 0.9148 0.0460
s off
f 1/1/1 18/2/1 42/3/1 32/4/1
f 1/1/2 32/4/2 43/5/2 17/6/2
f 1/1/3 17/6/3 41/7/3 18/2/3
f 2/8/4 34/9/4 44/10/4 28/11/4
f 2/12/5 28/13/5 49/14/5 31/15/5
f 2/8/6 31/16/6 48/17/6 34/9/6
f 3/18/7 35/19/7 48/17/7 36/20/7
f 3/18/8 36/20/8 46/21/8 25/22/8
f 3/18/9 25/22/9 45/23/9 35/19/9
f 4/24/10 25/22/10 46/21/10 37/25/10
f 4/24/11 37/25/11 41/26/11 26/27/11
f 4/24/12 26/27/12 45/23/12 25/22/12
f 5/28/13 21/29/13 47/30/13 38/31/13
f 5/28/14 38/31/14 41/32/14 17/33/14
f 5/34/15 17/6/15 43/5/15 21/35/15
f 6/36/16 40/37/16 49/14/16 28/13/16
f 6/38/17 28/11/17 44/10/17 19/39/17
f 6/38/18 19/39/18 42/3/18 40/40/18
f 7/41/19 30/42/19 48/17/19 31/16/19
f 7/43/20 31/15/20 49/14/20 29/44/20
f 7/43/21 29/44/21 50/45/21 30/46/21
f 8/47/22 32/4/22 42/3/22 19/39/22
f 8/47/23 19/39/23 44/10/23 20/48/23
f 8/47/24 20/48/24 43/5/24 32/4/24
f 9/49/25 22/50/25 47/51/25 21/35/25
f 9/49/26 21/35/26 43/5/26 33/52/26
f 9/49/27 33/52/27 48/17/27 22/50/27
f 10/53/28 33/52/28 43/5/28 20/48/28
f 10/53/29 20/48/29 44/10/29 34/9/29
f 10/53/30 34/9/30 48/17/30 33/52/30
f 11/54/31 35/19/31 45/23/31 23/55/31
f 11/54/32 23/55/32 47/51/32 22/50/32
f 11/54/33 22/50/33 48/17/33 35/19/33
f 12/56/34 36/20/34 48/17/34 30/42/34
f 12/57/35 30/46/35 50/45/35 24/58/35
f 12/56/36 24/59/36 46/21/36 36/20/36
f 13/60/37 37/25/37 46/21/37 27/61/37
f 13/60/38 27/61/38 42/62/38 18/63/38
f 13/60/39 18/63/39 41/26/39 37/25/39
f 14/64/40 38/31/40 47/30/40 23/65/40
f 14/66/41 23/55/41 45/23/41 26/27/41
f 14/64/42 26/67/42 41/32/42 38/31/42
f 15/68/43 27/61/43 46/21/43 24/59/43
f 15/69/44 24/58/44 50/45/44 39/70/44
f 15/68/45 39/71/45 42/62/45 27/61/45
f 16/72/46 39/70/46 50/45/46 29/44/46
f 16/72/47 29/44/47 49/14/47 40/37/47
f 16/73/48 40/74/48 42/62/48 39/71/48
