# Blender v2.79 (sub 0) OBJ File: 'jungle_atlas_export.blend'
# www.blender.org
o Rock_large_01_Plane.030
v 1.662743 5.108293 -3.074967
v -0.081259 4.888725 -3.425768
v -1.868737 5.024416 -2.664838
v -2.532835 5.024416 -2.013511
v 2.526758 4.460316 -2.430682
v 3.386542 4.267269 -2.330851
v 4.580907 2.782750 -1.257306
v 4.851779 2.371487 0.239969
v 2.348034 5.489928 0.880020
v 2.077052 4.484703 2.684220
v 1.190304 4.643207 3.029665
v 0.765257 4.694125 3.289012
v -1.729770 4.494357 3.542951
v -2.813011 4.494357 2.777308
v -3.875299 5.674899 -0.368035
v -3.120787 5.206624 -1.997470
v 2.032261 0.044123 -3.758328
v -3.084363 0.044123 -2.451956
v 2.249989 0.044123 -2.996278
v 5.873846 0.044123 -0.802308
v 5.770874 0.044123 -1.600343
v 5.391503 0.044123 1.016151
v 2.918727 0.044123 1.093910
v 3.291977 0.044123 2.851292
v 4.626861 0.044123 -3.382487
v 0.166015 0.044123 4.422049
v -1.218117 0.044123 4.810850
v -4.188558 0.044123 2.711323
v -4.079694 0.044123 -0.243565
v -4.857296 0.044123 -0.461294
v -3.830861 0.044123 -2.451956
v -0.937516 6.459964 3.702638
v -3.347958 0.044123 3.305465
v -2.058717 0.044123 4.216709
v -2.671221 0.044123 5.083288
v -3.960462 0.044123 4.172045
v -2.244406 4.494357 4.271066
v -3.327648 4.494357 3.505424
v 2.589942 5.983687 2.243236
v 1.102753 6.353520 2.806823
v 0.127773 6.459964 3.403400
v 3.637942 0.044123 -3.523761
v 2.471023 0.044123 3.193357
v 0.918627 0.044123 3.948182
v 2.757589 0.044123 3.746016
v 2.101099 0.044123 4.430386
v 1.205194 0.044123 4.500841
v 1.754212 4.642391 3.698938
v 2.315469 4.509560 3.145422
v 1.003759 4.699242 3.748574
v 1.863470 4.828703 -2.481555
v 3.254745 5.186841 -2.240140
v 4.142375 5.186841 -1.136943
v 4.395984 5.186841 0.828522
v 3.002900 0.044123 -2.888719
v 5.294174 0.044123 0.261850
v 3.918584 4.307651 -2.864698
v 5.299122 2.320919 -1.469520
v 3.057564 4.487441 -2.961599
v 5.436006 2.120210 -0.742503
v 5.929216 0.044123 -0.373192
v 5.427804 2.399441 -0.341633
v 5.148459 2.807341 -1.828113
v 5.715504 0.044123 -2.029459
v 6.969154 0.044123 -0.943638
v 6.436632 2.172312 -0.871534
v 6.289795 2.382159 -1.595467
v 6.866181 0.044123 -1.741673
v -0.085545 3.675265 -3.606452
v 1.171387 0.044123 -3.915422
v -2.176651 1.255849 -3.103928
v -2.966079 1.112220 -2.357925
v 0.874604 3.530192 -3.452751
v -1.194812 2.848442 -3.271222
v -1.386980 1.621672 -3.376071
v -1.742613 0.044123 -4.317400
v -0.366897 0.044123 -4.887340
v -3.352890 0.044123 -3.192167
v -2.544184 0.044123 -3.985321
v -0.319063 3.675265 -4.250159
v -2.433496 1.255849 -3.811934
v 0.902860 0.044123 -4.655632
v -3.224309 1.112220 -3.069749
v 0.639686 3.530192 -4.229630
v -1.436302 2.848442 -3.936903
v -1.818019 1.621672 -4.074355
v -3.223695 6.459964 2.086752
v -3.218146 5.925847 -0.192129
v -1.218280 3.252044 4.256744
v -3.706127 3.252043 2.399038
v -3.790906 2.984985 -0.217847
v 4.709266 2.830441 0.914494
v -4.508998 2.859511 -0.414664
v 2.468851 2.981984 0.978522
v 1.847502 2.576208 -3.551028
v 2.039364 2.651371 -2.715791
v -3.475824 2.625374 -2.224713
v 2.940959 3.013905 2.415206
v 0.006430 3.252043 3.781930
v -1.894244 2.269240 3.879829
v -3.080485 2.269240 3.041387
v -2.603879 2.269240 4.677177
v -3.790120 2.269240 3.838734
v 3.347753 2.265782 -3.242680
v 2.274037 2.264413 2.802752
v 0.841942 2.369124 3.483117
v 5.678510 1.221782 -0.498982
v 1.782012 2.343257 4.064662
v 2.536529 2.276841 3.445719
v 0.958995 2.371682 4.124708
v 5.431982 1.425732 -2.069273
v 5.072977 1.207805 0.109265
v 2.764829 2.252220 -2.659701
v 4.272723 2.175887 -3.260098
v 5.654926 1.082167 -0.914716
v 5.534998 1.182521 -1.534932
v 6.702893 1.108218 -1.049758
v 6.577988 1.213141 -1.668570
v 1.017624 1.787158 -3.823636
v -0.519091 1.859694 -4.568749
v 0.765902 1.787158 -4.517521
v -0.458180 5.663278 0.176489
v -1.972859 5.413858 -0.149214
v -1.269189 6.048503 2.371593
v -2.799648 6.273751 1.457889
v -2.648621 5.895702 0.458151
v -1.490883 6.638578 1.509384
v -1.172090 6.840040 0.594081
v -1.748054 6.782947 0.460401
v -2.089899 6.768976 0.663332
v -2.219213 6.744718 1.147575
v -0.641468 5.838525 1.352272
v -0.973307 6.711319 1.177829
vt 0.844167 0.347173
vt 0.861193 0.348200
vt 0.858153 0.351637
vt 0.844964 0.352718
vt 0.800013 0.318449
vt 0.815010 0.326280
vt 0.809412 0.329732
vt 0.796085 0.324111
vt 0.883765 0.281825
vt 0.885644 0.275888
vt 0.889891 0.277011
vt 0.888378 0.282956
vt 0.831697 0.367949
vt 0.819985 0.382327
vt 0.816333 0.378516
vt 0.829051 0.363492
vt 0.851199 0.286916
vt 0.851137 0.268159
vt 0.866055 0.265319
vt 0.865164 0.282915
vt 0.893423 0.322654
vt 0.908237 0.322862
vt 0.908649 0.327162
vt 0.894275 0.327473
vt 0.864663 0.369114
vt 0.871199 0.386582
vt 0.856158 0.391954
vt 0.850129 0.372640
vt 0.841342 0.286478
vt 0.840372 0.267204
vt 0.908708 0.331791
vt 0.898878 0.332680
vt 0.881135 0.369259
vt 0.884610 0.376139
vt 0.881253 0.378810
vt 0.870816 0.364243
vt 0.830068 0.304278
vt 0.826317 0.306284
vt 0.825425 0.302231
vt 0.828246 0.299260
vt 0.875931 0.335382
vt 0.882775 0.340207
vt 0.881458 0.350793
vt 0.866718 0.344697
vt 0.884517 0.362200
vt 0.807781 0.316461
vt 0.788973 0.306516
vt 0.793232 0.298533
vt 0.812493 0.307478
vt 0.881459 0.310154
vt 0.883868 0.297282
vt 0.889114 0.298568
vt 0.885486 0.309421
vt 0.818963 0.338196
vt 0.830335 0.323168
vt 0.832713 0.336981
vt 0.897773 0.297940
vt 0.904308 0.297264
vt 0.904874 0.305162
vt 0.894772 0.307017
vt 0.786565 0.312639
vt 0.807273 0.351556
vt 0.815867 0.350788
vt 0.798105 0.341751
vt 0.784829 0.344563
vt 0.782642 0.335322
vt 0.796094 0.333249
vt 0.898826 0.295366
vt 0.891005 0.294790
vt 0.895371 0.290206
vt 0.900193 0.290835
vt 0.811249 0.337496
vt 0.797399 0.362146
vt 0.791802 0.358492
vt 0.801419 0.348030
vt 0.835672 0.298880
vt 0.842793 0.306398
vt 0.838006 0.313455
vt 0.833916 0.317677
vt 0.896188 0.318900
vt 0.881002 0.317204
vt 0.884562 0.313156
vt 0.897061 0.314343
vt 0.836198 0.282084
vt 0.834786 0.267774
vt 0.809855 0.300223
vt 0.821023 0.288910
vt 0.814364 0.276972
vt 0.819234 0.274413
vt 0.825666 0.285863
vt 0.817161 0.291956
vt 0.810120 0.280025
vt 0.831878 0.296845
vt 0.831673 0.281633
vt 0.796133 0.293499
vt 0.797119 0.289613
vt 0.810944 0.296092
vt 0.877120 0.322341
vt 0.876201 0.311863
vt 0.873585 0.305296
vt 0.879879 0.287973
vt 0.866993 0.297838
vt 0.885049 0.289223
vt 0.905075 0.309921
vt 0.894484 0.311601
vt 0.874840 0.288277
vt 0.908570 0.318759
vt 0.890555 0.282898
vt 0.887881 0.289374
vt 0.904207 0.295349
vt 0.897570 0.285507
vt 0.900220 0.282573
vt 0.902100 0.284764
vt 0.898735 0.287485
vt 0.891868 0.277850
vt 0.896931 0.278168
vt 0.895473 0.283016
vt 0.894238 0.287696
vt 0.894863 0.349106
vt 0.899102 0.342670
vt 0.909095 0.347441
vt 0.905129 0.354561
vt 0.887131 0.333904
vt 0.889438 0.338404
vt 0.886617 0.342838
vt 0.885597 0.356968
vt 0.886404 0.350277
vt 0.890355 0.357166
vt 0.879172 0.327326
vt 0.886436 0.368587
vt 0.889635 0.362375
vt 0.896202 0.367058
vt 0.891865 0.372763
vt 0.899412 0.362526
vt 0.889326 0.374714
vt 0.909285 0.336084
vt 0.899674 0.336914
vt 0.801987 0.366733
vt 0.882166 0.273991
vt 0.830875 0.267351
vt 0.909285 0.313948
vt 0.905316 0.290792
vt 0.853984 0.307358
vt 0.782866 0.318309
vt 0.843029 0.340873
vt 0.849650 0.339343
vt 0.850855 0.328750
vt 0.843232 0.326486
vt 0.836752 0.337226
vt 0.836696 0.327486
vt 0.843669 0.334311
vt 0.843863 0.332012
vt 0.842247 0.335208
vt 0.840252 0.334693
vt 0.840075 0.331197
vt 0.842456 0.330475
vn -0.0037 0.9289 -0.3703
vn 0.7798 0.0127 0.6259
vn 0.6891 0.2210 0.6901
vn -0.2684 0.0176 0.9631
vn 0.0315 0.0441 0.9985
vn 0.9629 0.0979 -0.2515
vn -0.8673 0.1373 -0.4785
vn 0.9610 0.1064 -0.2554
vn 0.2081 0.0847 -0.9744
vn 0.0000 0.0877 -0.9961
vn 0.0761 0.9954 -0.0579
vn -0.3791 0.1376 -0.9151
vn -0.6934 0.1390 -0.7070
vn 0.3090 0.1815 0.9336
vn 0.4619 0.7306 0.5028
vn -0.5694 0.1640 0.8055
vn 0.7625 0.1532 -0.6286
vn -0.5992 0.1472 0.7869
vn -0.5693 0.1642 0.8055
vn -0.1279 0.0305 -0.9913
vn 0.0000 1.0000 0.0000
vn -0.7829 -0.0065 -0.6221
vn 0.3809 0.1386 0.9142
vn 0.5278 0.1363 0.8383
vn -0.7071 -0.0029 -0.7071
vn 0.3567 0.1836 0.9160
vn 0.4162 0.0903 0.9048
vn 0.6714 0.1855 0.7175
vn 0.0774 0.1671 0.9829
vn 0.9091 0.0464 -0.4140
vn 0.1286 0.9853 -0.1122
vn -0.9473 -0.0079 0.3202
vn 0.1404 0.1171 -0.9831
vn 0.7676 0.1710 -0.6176
vn 0.9748 0.1841 -0.1258
vn 0.1794 0.9542 0.2395
vn 0.1859 0.9557 0.2281
vn 0.0690 0.1022 -0.9924
vn 0.9832 0.1479 0.1071
vn 0.9653 0.2244 -0.1333
vn 0.9700 0.2082 -0.1252
vn 0.9733 0.2017 -0.1091
vn 0.9618 0.2368 -0.1372
vn 0.1252 0.1311 0.9834
vn -0.0194 0.9610 0.2757
vn 0.1129 0.1355 -0.9843
vn 0.1538 0.9868 -0.0507
vn -0.8848 0.1639 0.4363
vn 0.1776 0.1443 -0.9735
vn -0.6907 0.1639 -0.7043
vn -0.4135 0.1396 -0.8997
vn -0.3917 0.2092 -0.8960
vn -0.3944 0.8985 0.1929
vn -0.1341 0.9898 0.0486
vn -0.9375 0.0739 0.3401
vn -0.5465 0.8136 0.1983
vn 0.9353 0.1004 -0.3393
vn -0.9922 0.1240 -0.0102
vn -0.9856 0.1686 -0.0116
vn 0.9411 0.1315 -0.3114
vn 0.0477 0.1669 -0.9848
vn 0.1317 -0.1334 0.9823
vn 0.9581 0.2530 -0.1346
vn 0.9717 0.2127 -0.1022
vn 0.9735 0.1931 -0.1229
vn 0.9738 0.2188 -0.0613
vn 0.0684 0.1631 -0.9842
vn -0.9512 0.0311 0.3069
vn 0.9085 0.0205 -0.4174
vn 0.0772 0.1576 0.9845
vn 0.6704 0.1438 0.7279
vn 0.5126 0.1892 0.8375
vn 0.4421 0.0966 0.8917
vn -0.7791 0.0439 -0.6253
vn -0.5610 0.2355 0.7936
vn -0.6295 0.1757 0.7569
vn 0.7748 0.2461 -0.5824
vn 0.3180 0.1168 0.9409
vn 0.0983 0.2006 -0.9747
vn 0.9634 0.0702 -0.2589
vn -0.8569 0.1815 -0.4824
vn 0.9622 0.1112 -0.2485
vn 0.0312 0.0407 0.9987
vn -0.2728 0.0451 0.9610
vn 0.7075 0.0559 0.7045
vn 0.7814 0.0630 0.6209
vn -0.3765 0.1267 -0.9177
vn 0.2135 0.9356 -0.2813
vn 0.3722 0.8807 -0.2930
vn -0.2737 0.9442 -0.1834
vn -0.0409 0.9750 -0.2183
vn 0.0840 0.9904 -0.1101
vn 0.1182 0.9920 -0.0439
vn -0.2204 0.9626 -0.1576
vn 0.2111 0.9443 -0.2526
vn 0.2361 0.9325 -0.2732
vn -0.1355 0.9783 -0.1571
vn 0.1418 0.3937 -0.9082
vn -0.4287 0.4371 -0.7907
vn -0.7422 0.6067 -0.2848
vn 0.0207 0.9749 0.2218
vn 0.8896 0.4563 -0.0199
vn -0.0770 0.9970 0.0027
vn -0.2346 0.7554 0.6118
vn 0.6449 0.5891 0.4869
vn -0.0872 0.9603 -0.2649
s off
f 88/1/1 4/2/1 16/3/1 15/4/1
f 100/5/2 13/6/2 37/7/2 102/8/2
f 112/9/3 56/10/3 61/11/3 107/12/3
f 93/13/4 30/14/4 29/15/4 91/16/4
f 94/17/5 23/18/5 22/19/5 92/20/5
f 96/21/6 19/22/6 17/23/6 95/24/6
f 97/25/7 31/26/7 30/27/7 93/28/7
f 98/29/8 24/30/8 23/18/8 94/17/8
f 95/24/9 17/23/9 70/31/9 119/32/9
f 4/2/10 72/33/10 18/34/10 31/35/10 97/36/10 16/3/10
f 11/37/11 12/38/11 50/39/11 48/40/11
f 2/41/12 69/42/12 74/43/12 3/44/12
f 3/44/13 71/45/13 72/33/13 4/2/13
f 89/46/14 27/47/14 26/48/14 99/49/14
f 6/50/15 7/51/15 63/52/15 57/53/15
f 14/54/16 13/6/16 32/55/16 87/56/16
f 111/57/17 64/58/17 25/59/17 114/60/17
f 100/5/18 34/61/18 27/47/18 89/46/18
f 101/62/16 14/54/16 87/56/16 90/63/16
f 103/64/19 36/65/19 35/66/19 102/67/19
f 116/68/20 58/69/20 67/70/20 118/71/20
f 13/6/21 14/54/21 38/72/21 37/7/21
f 101/62/22 33/73/22 36/74/22 103/75/22
f 11/37/23 10/76/23 39/77/23 40/78/23
f 12/38/24 11/37/24 40/78/24 41/79/24
f 113/80/25 5/81/25 59/82/25 104/83/25
f 105/84/26 43/85/26 24/30/26 98/29/26
f 106/86/27 12/38/27 41/79/27 99/49/27
f 108/87/28 46/88/28 45/89/28 109/90/28
f 110/91/29 47/92/29 46/88/29 108/87/29
f 105/84/30 10/76/30 49/93/30 109/94/30
f 10/76/31 11/37/31 48/40/31 49/93/31
f 106/86/32 44/95/32 47/96/32 110/97/32
f 6/50/33 5/81/33 51/98/33 52/99/33
f 7/51/34 6/50/34 52/99/34 53/100/34
f 8/101/35 7/51/35 53/100/35 54/102/35
f 5/81/36 6/50/36 57/53/36 59/82/36
f 7/51/37 8/101/37 62/103/37 63/52/37
f 114/60/38 25/59/38 42/104/38 104/105/38
f 112/9/39 8/101/39 54/102/39 92/106/39
f 113/80/33 55/107/33 19/22/33 96/21/33
f 115/108/40 60/109/40 62/103/40 107/12/40
f 60/109/41 58/69/41 63/52/41 62/103/41
f 116/68/42 21/110/42 64/58/42 111/57/42
f 117/111/43 65/112/43 68/113/43 118/114/43
f 115/108/44 20/115/44 65/116/44 117/117/44
f 58/69/45 60/109/45 66/118/45 67/70/45
f 120/119/46 121/120/46 82/121/46 77/122/46
f 69/42/47 73/123/47 84/124/47 80/125/47
f 75/126/48 74/43/48 85/127/48 86/128/48
f 3/44/12 74/43/12 75/126/12 71/45/12
f 73/123/49 69/42/49 2/41/49 1/129/49
f 83/130/50 81/131/50 79/132/50 78/133/50
f 81/131/51 86/128/51 76/134/51 79/132/51
f 86/128/52 85/127/52 80/125/52 120/119/52
f 71/45/53 75/126/53 86/128/53 81/131/53
f 72/33/54 71/45/54 81/131/54 83/130/54
f 18/34/55 72/33/55 83/130/55 78/135/55
f 74/43/56 69/42/56 80/125/56 85/127/56
f 119/32/57 70/31/57 82/136/57 121/137/57
f 90/63/58 91/16/58 29/15/58 28/138/58
f 87/56/59 88/1/59 91/16/59 90/63/59
f 73/123/60 119/32/60 121/137/60 84/124/60
f 80/125/61 84/124/61 121/120/61 120/119/61
f 60/109/62 115/108/62 117/117/62 66/118/62
f 66/118/63 117/111/63 118/114/63 67/70/63
f 58/69/64 116/68/64 111/57/64 63/52/64
f 20/115/65 115/108/65 107/12/65 61/11/65
f 5/81/33 113/80/33 96/21/33 51/98/33
f 56/10/66 112/9/66 92/106/66 22/139/66
f 57/53/67 114/60/67 104/105/67 59/82/67
f 12/38/68 106/86/68 110/97/68 50/39/68
f 43/85/69 105/84/69 109/94/69 45/140/69
f 50/39/70 110/91/70 108/87/70 48/40/70
f 48/40/71 108/87/71 109/90/71 49/93/71
f 44/95/72 106/86/72 99/49/72 26/48/72
f 10/76/73 105/84/73 98/29/73 39/77/73
f 55/107/25 113/80/25 104/83/25 42/141/25
f 14/54/74 101/62/74 103/75/74 38/72/74
f 21/110/20 116/68/20 118/71/20 68/142/20
f 38/72/75 103/64/75 102/67/75 37/7/75
f 33/73/16 101/62/16 90/63/16 28/138/16
f 13/6/76 100/5/76 89/46/76 32/55/76
f 63/52/77 111/57/77 114/60/77 57/53/77
f 32/55/78 89/46/78 99/49/78 41/79/78
f 1/129/79 95/24/79 119/32/79 73/123/79
f 39/77/80 98/29/80 94/17/80 9/143/80
f 16/3/81 97/25/81 93/28/81 15/4/81
f 51/98/82 96/21/82 95/24/82 1/129/82
f 9/143/83 94/17/83 92/20/83 54/102/83
f 15/4/84 93/13/84 91/16/84 88/1/84
f 8/101/85 112/9/85 107/12/85 62/103/85
f 34/61/86 100/5/86 102/8/86 35/144/86
f 76/134/87 86/128/87 120/119/87 77/122/87
f 2/41/88 40/78/88 39/77/88 9/143/88
f 88/1/89 126/145/89 123/146/89 4/2/89
f 41/79/90 122/147/90 132/148/90
f 2/41/91 3/44/91 122/147/91 41/79/91 40/78/91
f 1/129/92 2/41/92 9/143/92 51/98/92
f 9/143/93 54/102/93 53/100/93 52/99/93
f 51/98/94 9/143/94 52/99/94
f 87/56/95 125/149/95 126/145/95 88/1/95
f 32/55/96 124/150/96 125/149/96 87/56/96
f 123/146/97 122/147/97 3/44/97 4/2/97
f 122/147/98 123/146/98 129/151/98 128/152/98
f 123/146/99 126/145/99 130/153/99 129/151/99
f 126/145/100 125/149/100 131/154/100 130/153/100
f 127/155/101 133/156/101 128/152/101 131/154/101
f 132/148/102 122/147/102 128/152/102 133/156/102
f 128/152/103 129/151/103 130/153/103 131/154/103
f 125/149/104 124/150/104 127/155/104 131/154/104
f 124/150/105 132/148/105 133/156/105 127/155/105
f 32/55/106 41/79/106 132/148/106 124/150/106
