# Blender v2.79 (sub 0) OBJ File: 'jungle_atlas_export.blend'
# www.blender.org
o Rock_small_04_Cube.011
v 0.075498 0.148916 -0.000278
v -0.206470 -0.070469 0.370001
v -0.391610 -0.070469 -0.185416
v 0.304792 -0.070469 0.229015
v -0.021331 -0.180161 0.184861
v 0.445776 0.039223 -0.000279
v 0.304792 -0.070469 -0.229572
v -0.065486 0.148916 -0.229572
v -0.065486 0.148916 0.229016
v -0.391609 0.039223 0.184862
v -0.206471 0.039223 -0.370556
v 0.119654 0.039223 0.414155
v -0.021331 -0.180161 -0.185417
v 0.119652 0.039223 -0.414711
v 0.199054 -0.152738 0.242184
v 0.421569 -0.015623 0.090161
v -0.032369 -0.015623 0.473608
v -0.206470 -0.152738 0.277431
v -0.263793 0.121493 0.242185
v -0.484179 -0.015623 -0.000277
v -0.252756 -0.152738 -0.231701
v -0.217510 0.121493 -0.289025
v -0.032371 0.011800 -0.474164
v 0.199054 -0.152738 -0.242741
v 0.421569 -0.015623 -0.090718
v 0.331129 0.121493 -0.000279
v 0.108614 0.121493 -0.333180
v 0.108615 0.121493 0.332624
v -0.041279 0.148916 -0.090717
v -0.041278 0.148916 0.090162
v -0.299039 -0.015623 0.277431
v -0.299040 -0.015623 -0.277986
v 0.201184 -0.015623 0.332624
v -0.021331 -0.180161 -0.000278
v 0.201183 -0.015623 -0.333180
v 0.368313 -0.136284 -0.000279
v 0.022727 -0.111604 0.395370
v -0.092985 0.080358 0.395370
v -0.030163 -0.114346 -0.416415
v -0.045862 0.087975 -0.374516
v -0.391609 -0.136284 0.036750
v -0.409017 0.118446 -0.025991
v 0.288834 0.105039 -0.153813
v 0.288835 0.105039 0.153256
vt 0.912759 0.407005
vt 0.911687 0.405966
vt 0.912463 0.405271
vt 0.913661 0.407145
vt 0.914990 0.409232
vt 0.912839 0.407895
vt 0.911253 0.406739
vt 0.912026 0.410660
vt 0.910661 0.410174
vt 0.911446 0.409483
vt 0.912914 0.410433
vt 0.914573 0.411449
vt 0.912374 0.411454
vt 0.910491 0.411188
vt 0.916408 0.408395
vt 0.916030 0.409748
vt 0.916149 0.407557
vt 0.916903 0.405556
vt 0.917189 0.407604
vt 0.917189 0.409702
vt 0.910182 0.406793
vt 0.910700 0.405931
vt 0.910336 0.407700
vt 0.909571 0.408862
vt 0.909380 0.407169
vt 0.909963 0.405267
vt 0.926265 0.411583
vt 0.925903 0.412866
vt 0.923959 0.412704
vt 0.925395 0.410788
vt 0.927089 0.408938
vt 0.927498 0.410795
vt 0.927498 0.412327
vt 0.911107 0.405613
vt 0.911102 0.404901
vt 0.912943 0.404042
vt 0.913627 0.403417
vt 0.915534 0.404049
vt 0.913846 0.404504
vt 0.911653 0.404169
vt 0.911589 0.403022
vt 0.914391 0.406678
vt 0.914108 0.405486
vt 0.915099 0.405884
vt 0.915251 0.407136
vt 0.912279 0.408553
vt 0.913001 0.409508
vt 0.911187 0.408124
vt 0.913761 0.410130
vt 0.915171 0.410411
vt 0.915806 0.406731
vt 0.915880 0.405370
vt 0.910607 0.408385
vt 0.910414 0.409445
vt 0.924527 0.409992
vt 0.923298 0.410877
vt 0.923360 0.408999
vt 0.925203 0.408695
vt 0.914494 0.404947
vt 0.915526 0.405065
vn 0.1054 0.9852 -0.1351
vn -0.0628 0.9980 0.0000
vn 0.1054 0.9852 0.1351
vn -0.5659 0.2964 0.7693
vn -0.7197 -0.4859 0.4958
vn -0.2021 -0.7094 0.6752
vn -0.7748 0.3645 -0.5165
vn -0.5234 -0.4258 -0.7381
vn -0.6486 -0.7298 -0.2162
vn 0.6968 0.3367 0.6333
vn 0.4959 -0.4835 0.7213
vn 0.6574 -0.6562 0.3705
vn -0.1238 -0.9922 0.0155
vn 0.1154 -0.9933 0.0075
vn 0.0265 -0.9521 0.3045
vn 0.6437 0.6693 -0.3711
vn 0.6437 0.6693 0.3711
vn 0.9149 -0.4038 -0.0000
vn 0.4727 -0.4903 -0.7322
vn 0.6968 0.3367 -0.6333
vn 0.6574 -0.6562 -0.3705
vn -0.0532 0.9179 -0.3931
vn -0.1110 0.9931 -0.0387
vn 0.1296 0.9911 -0.0320
vn -0.1061 0.9941 0.0241
vn -0.0891 0.9260 0.3669
vn 0.1296 0.9911 0.0320
vn -0.5728 0.3391 0.7463
vn -0.7178 0.6302 0.2960
vn -0.7536 -0.4240 0.5024
vn -0.7464 0.4011 -0.5310
vn -0.2336 0.7160 -0.6578
vn -0.5244 -0.3736 -0.7651
vn 0.6858 0.4630 0.5615
vn 0.0673 0.6808 0.7294
vn 0.4732 -0.4018 0.7840
vn -0.1177 -0.9931 0.0000
vn -0.0067 -0.9618 -0.2738
vn 0.1154 -0.9933 -0.0075
vn 0.4341 -0.4146 -0.7998
vn 0.0642 0.7555 -0.6520
vn 0.6858 0.4630 -0.5615
s off
f 1/1/1 26/2/1 43/3/1 29/4/1
f 1/1/2 29/4/2 42/5/2 30/6/2
f 1/1/3 30/6/3 44/7/3 26/2/3
f 2/8/4 17/9/4 38/10/4 31/11/4
f 2/8/5 31/11/5 41/12/5 18/13/5
f 2/8/6 18/13/6 37/14/6 17/9/6
f 3/15/7 20/16/7 42/5/7 32/17/7
f 3/15/8 32/17/8 39/18/8 21/19/8
f 3/15/9 21/19/9 41/20/9 20/16/9
f 4/21/10 16/22/10 44/7/10 33/23/10
f 4/21/11 33/23/11 37/24/11 15/25/11
f 4/21/12 15/25/12 36/26/12 16/22/12
f 5/27/13 18/28/13 41/29/13 34/30/13
f 5/27/14 34/30/14 36/31/14 15/32/14
f 5/27/15 15/32/15 37/33/15 18/28/15
f 6/34/16 25/35/16 43/3/16 26/2/16
f 6/34/17 26/2/17 44/7/17 16/22/17
f 6/34/18 16/22/18 36/26/18 25/35/18
f 7/36/19 24/37/19 39/38/19 35/39/19
f 7/36/20 35/39/20 43/3/20 25/40/20
f 7/36/21 25/40/21 36/41/21 24/37/21
f 8/42/22 27/43/22 40/44/22 22/45/22
f 8/42/23 22/45/23 42/5/23 29/4/23
f 8/42/24 29/4/24 43/3/24 27/43/24
f 9/46/25 30/6/25 42/5/25 19/47/25
f 9/46/26 19/47/26 38/10/26 28/48/26
f 9/46/27 28/48/27 44/7/27 30/6/27
f 10/49/28 31/11/28 38/10/28 19/47/28
f 10/49/29 19/47/29 42/5/29 20/50/29
f 10/49/30 20/50/30 41/12/30 31/11/30
f 11/51/31 32/17/31 42/5/31 22/45/31
f 11/51/32 22/45/32 40/44/32 23/52/32
f 11/51/33 23/52/33 39/18/33 32/17/33
f 12/53/34 33/23/34 44/7/34 28/48/34
f 12/53/35 28/48/35 38/10/35 17/54/35
f 12/53/36 17/54/36 37/24/36 33/23/36
f 13/55/37 34/30/37 41/29/37 21/56/37
f 13/55/38 21/56/38 39/57/38 24/58/38
f 13/55/39 24/58/39 36/31/39 34/30/39
f 14/59/40 35/39/40 39/38/40 23/60/40
f 14/59/41 23/60/41 40/44/41 27/43/41
f 14/59/42 27/43/42 43/3/42 35/39/42
