# Blender v2.79 (sub 0) OBJ File: 'jungle_atlas_export.blend'
# www.blender.org
o ClayPot03_Sphere
v -0.000000 0.119718 -0.130736
v 0.070521 0.050974 -0.127151
v 0.108886 0.119718 -0.067871
v 0.141041 0.050974 -0.005005
v 0.108886 0.119718 0.057860
v 0.070521 0.050974 0.117140
v -0.000000 0.119718 0.120726
v -0.070521 0.050974 0.117140
v -0.108886 0.119718 0.057860
v -0.141042 0.050974 -0.005005
v -0.108886 0.119718 -0.067871
v -0.070521 0.050974 -0.127151
v -0.000000 0.129174 -0.124506
v -0.058033 0.129216 -0.105522
v -0.076965 0.074752 -0.138312
v -0.050034 0.019643 -0.090667
v -0.000073 0.005854 -0.004329
v -0.103490 0.129174 -0.064756
v -0.116066 0.129216 -0.005005
v -0.153929 0.074752 -0.005005
v -0.100067 0.019643 -0.004006
v -0.093969 0.022012 -0.058634
v -0.124218 0.051390 -0.076723
v -0.134545 0.074752 -0.082685
v -0.061323 0.119753 -0.111219
v -0.103490 0.129174 0.054745
v -0.058033 0.129216 0.095511
v -0.076965 0.074752 0.128301
v -0.050034 0.019643 0.082655
v -0.093969 0.022012 0.049872
v -0.124218 0.051390 0.066712
v -0.134545 0.074752 0.072674
v -0.122645 0.119753 -0.005005
v -0.000000 0.129174 0.114495
v 0.058033 0.129216 0.095511
v 0.076964 0.074752 0.128301
v 0.050033 0.019538 0.082155
v -0.000000 0.022012 0.104125
v -0.000000 0.051390 0.138429
v -0.000000 0.074752 0.150354
v -0.061323 0.119753 0.101208
v 0.100067 0.019538 -0.004506
v 0.103490 0.129174 0.054745
v 0.116066 0.129216 -0.005005
v 0.153929 0.074752 -0.005005
v 0.093969 0.021880 0.049248
v 0.124218 0.051390 0.066712
v 0.134545 0.074752 0.072674
v 0.061322 0.119753 0.101208
v 0.103490 0.129174 -0.064755
v 0.058033 0.129216 -0.105522
v 0.076964 0.074752 -0.138312
v 0.050033 0.019643 -0.090667
v 0.093969 0.022012 -0.058634
v 0.124218 0.051390 -0.076723
v 0.134545 0.074752 -0.082685
v 0.122645 0.119753 -0.005005
v -0.000000 0.022012 -0.112887
v -0.000000 0.051390 -0.148440
v -0.000000 0.074752 -0.160364
v 0.061322 0.119753 -0.111219
v 0.039701 0.106815 -0.155486
v 0.110434 0.106815 -0.114649
v 0.150135 0.106815 -0.045884
v 0.150135 0.106815 0.035792
v 0.110434 0.106815 0.104556
v 0.039701 0.106815 0.145394
v -0.039701 0.106815 0.145394
v -0.110435 0.106815 0.104556
v -0.150136 0.106815 0.035792
v -0.150136 0.106815 -0.045884
v -0.110435 0.106815 -0.114649
v -0.039701 0.106815 -0.155486
v 0.078860 0.107371 -0.141636
v 0.077681 0.047615 -0.139595
v 0.157721 0.107371 -0.005046
v 0.155363 0.047615 -0.005046
v 0.078860 0.107371 0.131544
v 0.077681 0.047615 0.129502
v -0.078861 0.107371 0.131544
v -0.077682 0.047615 0.129502
v -0.157721 0.107371 -0.005046
v -0.155363 0.047615 -0.005046
v -0.078861 0.107371 -0.141636
v -0.077682 0.047615 -0.139595
v -0.063926 0.128882 -0.115769
v -0.084780 0.075612 -0.151889
v -0.055114 0.013103 -0.099406
v -0.062523 0.003099 -0.037015
v -0.062523 0.003099 0.035180
v 0.062523 0.002519 0.032428
v 0.062523 0.003003 -0.037474
v -0.000000 0.003099 -0.073113
v -0.127852 0.128882 -0.005046
v -0.169559 0.075612 -0.005046
v -0.110228 0.013103 -0.003945
v -0.136831 0.048073 -0.084046
v -0.139595 0.107141 -0.085642
v -0.063926 0.128882 0.105676
v -0.084780 0.075612 0.141796
v -0.055114 0.013103 0.091515
v -0.136831 0.048073 0.073953
v -0.139595 0.107141 0.075549
v 0.063926 0.128882 0.105676
v 0.084779 0.075612 0.141796
v 0.055114 0.012987 0.090964
v -0.000000 0.003003 0.070819
v -0.000000 0.048073 0.152953
v -0.000000 0.107141 0.156144
v 0.110228 0.012987 -0.004496
v 0.127851 0.128882 -0.005046
v 0.169559 0.075612 -0.005046
v 0.136831 0.048073 0.073953
v 0.139595 0.107141 0.075549
v 0.063926 0.128882 -0.115769
v 0.084779 0.075612 -0.151889
v 0.055114 0.013103 -0.099406
v 0.136831 0.048073 -0.084046
v 0.139595 0.107141 -0.085642
v -0.000000 0.048073 -0.163045
v -0.000000 0.107141 -0.166237
v -0.103511 0.015713 -0.064120
v -0.148207 0.075612 -0.090613
v -0.113999 0.128836 -0.070864
v -0.103511 0.015713 0.055404
v -0.148207 0.075612 0.080521
v -0.113999 0.128836 0.060771
v -0.000000 0.000000 0.000000
v -0.000000 0.015713 0.115165
v -0.000000 0.075612 0.166088
v -0.000000 0.128836 0.126588
v 0.103510 0.015567 0.054715
v 0.148206 0.075612 0.080521
v 0.113998 0.128836 0.060771
v 0.103510 0.015713 -0.064120
v 0.148206 0.075612 -0.090613
v 0.113998 0.128836 -0.070863
v -0.000000 0.015713 -0.123882
v -0.000000 0.075612 -0.176181
v -0.000000 0.128836 -0.136681
vt 0.050001 0.163451
vt 0.041826 0.163451
vt 0.041826 0.160588
vt 0.050001 0.160588
vt 0.234858 0.565642
vt 0.232249 0.565642
vt 0.232249 0.551112
vt 0.234858 0.551112
vt 0.234858 0.667486
vt 0.232249 0.667486
vt 0.232249 0.652946
vt 0.234858 0.652946
vt 0.107190 0.163451
vt 0.099016 0.163451
vt 0.099016 0.160588
vt 0.107190 0.160588
vt 0.078175 0.221346
vt 0.084749 0.222798
vt 0.076912 0.233518
vt 0.066342 0.163451
vt 0.058170 0.163451
vt 0.058170 0.160588
vt 0.066342 0.160588
vt 0.017317 0.163451
vt 0.009142 0.163451
vt 0.009142 0.160588
vt 0.017317 0.160588
vt 0.041826 0.168683
vt 0.033662 0.168683
vt 0.033662 0.163451
vt 0.017317 0.168683
vt 0.009142 0.168683
vt 0.137917 0.232123
vt 0.127475 0.235918
vt 0.131791 0.229815
vt 0.596876 0.054310
vt 0.604459 0.061860
vt 0.594588 0.072688
vt 0.082680 0.163451
vt 0.074519 0.163451
vt 0.074519 0.160588
vt 0.082680 0.160588
vt 0.210575 0.227249
vt 0.201551 0.225623
vt 0.206620 0.222680
vt 0.193806 0.726666
vt 0.183511 0.737979
vt 0.183040 0.726666
vt 0.025483 0.163451
vt 0.025483 0.160588
vt 0.033662 0.160588
vt 0.229516 0.536568
vt 0.232249 0.536568
vt 0.229516 0.551112
vt 0.229516 0.638384
vt 0.232249 0.638384
vt 0.229516 0.652946
vt 0.074519 0.154749
vt 0.082680 0.154749
vt 0.528729 0.072529
vt 0.538496 0.061545
vt 0.549347 0.072173
vt 0.238971 0.235932
vt 0.228543 0.232139
vt 0.234663 0.229835
vt 0.229516 0.667486
vt 0.232249 0.682039
vt 0.229516 0.682039
vt 0.570750 0.096733
vt 0.559839 0.085677
vt 0.570750 0.075176
vt 0.615241 0.051941
vt 0.009142 0.154749
vt 0.017317 0.154749
vt 0.134088 0.245363
vt 0.129531 0.239707
vt 0.139176 0.235529
vt 0.142038 0.242238
vt 0.615244 0.072596
vt 0.167426 0.709992
vt 0.182958 0.709992
vt 0.174867 0.717303
vt 0.183240 0.224395
vt 0.174070 0.224794
vt 0.178606 0.220794
vt 0.164934 0.225602
vt 0.155906 0.227229
vt 0.159864 0.222658
vt 0.219545 0.229280
vt 0.225014 0.226980
vt 0.549347 0.027781
vt 0.538027 0.039537
vt 0.529013 0.031562
vt 0.127670 0.713978
vt 0.143233 0.713978
vt 0.135137 0.721287
vt 0.127135 0.172824
vt 0.123274 0.179515
vt 0.120970 0.172499
vt 0.192413 0.224809
vt 0.187880 0.220801
vt 0.573481 0.075119
vt 0.581535 0.083302
vt 0.570882 0.094046
vt 0.088108 0.228520
vt 0.090168 0.234876
vt 0.146927 0.229263
vt 0.150475 0.224559
vt 0.527907 0.051302
vt 0.549345 0.050163
vt 0.130738 0.180780
vt 0.594995 0.046182
vt 0.602590 0.038620
vt 0.613383 0.048550
vt 0.143321 0.713977
vt 0.158882 0.713977
vt 0.151419 0.721287
vt 0.025483 0.168683
vt 0.063678 0.232167
vt 0.066972 0.226305
vt 0.065726 0.238494
vt 0.592441 0.094381
vt 0.549206 0.096432
vt 0.571025 0.049018
vt 0.581674 0.038271
vt 0.592585 0.049348
vt 0.066342 0.168683
vt 0.058170 0.168683
vt 0.074519 0.168683
vt 0.614101 0.094355
vt 0.603202 0.083866
vt 0.614102 0.072820
vt 0.050001 0.154749
vt 0.058170 0.154749
vt 0.069128 0.244314
vt 0.025483 0.154749
vt 0.234858 0.638384
vt 0.090849 0.168683
vt 0.082680 0.168683
vt 0.090849 0.163451
vt 0.182489 0.728684
vt 0.172205 0.717385
vt 0.182958 0.717385
vt 0.183040 0.704437
vt 0.198555 0.704437
vt 0.191123 0.711742
vt 0.090849 0.160588
vt 0.090849 0.154749
vt 0.099016 0.154749
vt 0.229516 0.580201
vt 0.232249 0.580201
vt 0.232249 0.594751
vt 0.229516 0.594751
vt 0.234858 0.623850
vt 0.232249 0.623850
vt 0.232249 0.609293
vt 0.234858 0.609293
vt 0.127702 0.706592
vt 0.143247 0.706592
vt 0.135166 0.713897
vt 0.143329 0.706534
vt 0.158752 0.706534
vt 0.150785 0.713897
vt 0.066342 0.154749
vt 0.127670 0.721369
vt 0.143239 0.721369
vt 0.135143 0.728684
vt 0.033662 0.154749
vt 0.041826 0.154749
vt 0.570882 0.115260
vt 0.580746 0.104433
vt 0.591524 0.115164
vt 0.234858 0.536568
vt 0.232249 0.522028
vt 0.234858 0.522028
vt 0.570893 0.051275
vt 0.559589 0.039533
vt 0.570892 0.028922
vt 0.183040 0.711825
vt 0.198595 0.711823
vt 0.191127 0.719131
vt 0.082372 0.245667
vt 0.075659 0.245667
vt 0.126985 0.185961
vt 0.549347 0.051434
vt 0.530759 0.054026
vt 0.197438 0.221444
vt 0.551771 0.077502
vt 0.229516 0.522028
vt 0.573156 0.096884
vt 0.216002 0.224581
vt 0.570750 0.075045
vt 0.559626 0.065209
vt 0.570750 0.051434
vt 0.141451 0.226958
vt 0.086837 0.240653
vt 0.050001 0.168683
vt 0.099016 0.168683
vt 0.234858 0.594751
vt 0.234858 0.580201
vt 0.229516 0.565642
vt 0.229516 0.609293
vt 0.229516 0.623850
vt 0.147839 0.232575
vt 0.149733 0.238848
vt 0.550585 0.047497
vt 0.530508 0.093657
vt 0.538236 0.086145
vt 0.549074 0.096243
vt 0.549479 0.052065
vt 0.169049 0.221426
vt 0.183040 0.719213
vt 0.198485 0.719213
vt 0.191018 0.726584
vt 0.071473 0.221373
vt 0.143321 0.721370
vt 0.158889 0.721370
vt 0.151417 0.728684
vt 0.549073 0.075532
vt 0.107190 0.154749
vt 0.613383 0.027878
vt 0.229516 0.507475
vt 0.232249 0.507475
vt 0.139452 0.181677
vt 0.134266 0.187475
vt 0.144578 0.174583
vt 0.140971 0.166649
vt 0.148038 0.168445
vt 0.146649 0.181930
vt 0.141652 0.187475
vt 0.549479 0.027781
vt 0.528479 0.075176
vt 0.156594 0.230592
vt 0.165387 0.228970
vt 0.132116 0.165973
vt 0.129574 0.160636
vt 0.137021 0.160549
vt 0.144274 0.162088
vt 0.135939 0.173598
vt 0.591524 0.094512
vt 0.192184 0.228231
vt 0.201098 0.228992
vt 0.209889 0.230609
vt 0.218634 0.232588
vt 0.216740 0.238852
vt 0.227285 0.235540
vt 0.224425 0.242240
vt 0.592585 0.027781
vt 0.573613 0.030086
vt 0.594456 0.051434
vt 0.581033 0.062945
vt 0.570882 0.052131
vt 0.592441 0.072820
vt 0.592573 0.073117
vt 0.595140 0.092034
vt 0.150289 0.175533
vt 0.124641 0.166075
vt 0.174787 0.235182
vt 0.174295 0.228216
vt 0.183237 0.227800
vt 0.183231 0.234257
vt 0.191639 0.235140
vt 0.200159 0.235409
vt 0.158092 0.237461
vt 0.166256 0.235448
vt 0.592717 0.027781
vt 0.236917 0.239716
vt 0.232364 0.245363
vt 0.208317 0.237442
vt 0.594456 0.072688
vt 0.234858 0.682039
vt 0.107190 0.168683
vt 0.234858 0.507475
vn 0.3940 0.6164 -0.6818
vn 0.6795 0.6205 -0.3915
vn 0.7653 0.4681 -0.4418
vn 0.4430 0.4636 -0.7673
vn -0.7147 -0.5648 -0.4126
vn -0.7140 -0.5660 -0.4122
vn -0.8314 -0.5557 -0.0000
vn -0.8307 -0.5567 -0.0000
vn 0.4153 -0.5567 0.7194
vn 0.4157 -0.5557 0.7200
vn 0.7140 -0.5660 0.4122
vn 0.7147 -0.5648 0.4126
vn -0.0000 0.6258 0.7800
vn -0.3910 0.6227 0.6778
vn -0.4430 0.4636 0.7673
vn -0.0000 0.4681 0.8837
vn -0.2067 0.9105 -0.3582
vn -0.3934 0.8910 -0.2265
vn 0.0004 1.0000 0.0003
vn -0.3937 0.6174 -0.6810
vn -0.0002 0.6191 -0.7853
vn 0.0000 0.4681 -0.8837
vn -0.4430 0.4636 -0.7673
vn 0.3910 0.6227 0.6778
vn 0.4430 0.4636 0.7673
vn 0.3939 0.8903 -0.2284
vn 0.4107 0.9118 -0.0015
vn 0.7849 0.6196 0.0005
vn 0.2035 0.9139 0.3511
vn -0.0000 0.8941 0.4480
vn 0.4991 -0.0595 -0.8645
vn 0.0000 -0.0757 -0.9971
vn 0.2381 0.5727 -0.7844
vn 0.8635 -0.0757 0.4986
vn 0.7175 0.5600 0.4143
vn 0.5602 0.5727 0.5984
vn -0.7852 0.6193 0.0004
vn -0.6789 0.6210 -0.3917
vn -0.7653 0.4681 -0.4418
vn -0.8860 0.4637 -0.0000
vn -0.9982 -0.0595 -0.0000
vn -0.8635 -0.0757 0.4986
vn -0.7984 0.5727 0.1860
vn 0.0000 0.8136 -0.5814
vn 0.2914 0.8126 -0.5047
vn 0.6764 0.6240 0.3913
vn 0.7653 0.4681 0.4418
vn 0.8860 0.4636 0.0000
vn 0.0241 0.9996 -0.0139
vn 0.0284 0.9996 0.0000
vn -0.0284 0.9996 -0.0000
vn -0.0241 0.9996 -0.0139
vn -0.7152 -0.5638 -0.4129
vn -0.8301 -0.5576 -0.0000
vn 0.7984 0.5727 -0.1860
vn 0.7175 0.5600 -0.4143
vn 0.5035 0.8136 -0.2907
vn -0.4991 -0.0595 -0.8645
vn -0.2381 0.5727 -0.7844
vn -0.0141 0.9996 -0.0245
vn 0.0000 0.9996 -0.0278
vn 0.5828 0.8126 0.0000
vn 0.8057 0.5923 0.0000
vn 0.7984 0.5727 0.1860
vn -0.0000 -0.5638 0.8259
vn -0.0000 -0.5648 0.8252
vn 0.4150 -0.5576 0.7189
vn 0.0000 -0.8775 -0.4795
vn 0.0000 -0.6143 -0.7891
vn 0.3954 -0.6114 -0.6854
vn 0.2216 -0.8962 -0.3842
vn 0.5035 0.8136 0.2907
vn -0.0000 -0.0757 0.9971
vn 0.4991 -0.0595 0.8645
vn 0.2381 0.5727 0.7844
vn 0.9982 -0.0595 0.0000
vn -0.8635 -0.0757 -0.4986
vn -0.5602 0.5727 -0.5984
vn 0.4029 0.5923 -0.6978
vn 0.2914 0.8126 0.5047
vn 0.1376 -0.9872 -0.0804
vn 0.4207 -0.8739 -0.2435
vn -0.4991 -0.0595 0.8645
vn -0.2381 0.5727 0.7844
vn 0.4029 0.5923 0.6978
vn -0.4106 0.9118 0.0001
vn -0.3905 0.8926 0.2253
vn 0.8635 -0.0757 -0.4986
vn 0.5602 0.5727 -0.5984
vn -0.0006 -0.9882 -0.1530
vn 0.0000 0.5600 0.8285
vn -0.2914 0.8126 0.5047
vn -0.5035 0.8136 0.2907
vn -0.5602 0.5727 0.5984
vn 0.3905 0.8928 0.2245
vn 0.2072 0.9095 -0.3603
vn -0.4029 0.5923 0.6978
vn -0.0004 0.8892 -0.4576
vn -0.7984 0.5727 -0.1860
vn -0.8057 0.5923 -0.0000
vn -0.5828 0.8126 0.0000
vn 0.4150 -0.5576 -0.7189
vn 0.4153 -0.5567 -0.7194
vn 0.0000 -0.5648 -0.8252
vn 0.0000 -0.5638 -0.8259
vn 0.7152 -0.5638 0.4129
vn 0.8314 -0.5557 0.0000
vn 0.8307 -0.5567 0.0000
vn -0.6765 0.6238 0.3915
vn -0.2914 0.8126 -0.5047
vn -0.5035 0.8136 -0.2907
vn -0.7152 -0.5638 0.4129
vn -0.7147 -0.5648 0.4126
vn -0.4153 -0.5567 0.7194
vn -0.4150 -0.5576 0.7189
vn 0.0142 0.9996 0.0246
vn 0.0000 0.9996 0.0280
vn 0.7147 -0.5648 -0.4126
vn 0.7140 -0.5660 -0.4122
vn 0.4157 -0.5557 -0.7200
vn -0.4153 -0.5567 -0.7194
vn -0.4150 -0.5576 -0.7189
vn 0.0000 0.8136 0.5814
vn 0.8301 -0.5576 0.0000
vn 0.7152 -0.5638 -0.4129
vn -0.7175 0.5600 0.4143
vn -0.7140 -0.5660 0.4122
vn -0.4157 -0.5557 0.7200
vn -0.4029 0.5923 -0.6978
vn 0.0141 0.9996 -0.0245
vn 0.0000 0.5600 -0.8285
vn -0.2035 0.9140 0.3511
vn 0.0000 -0.5660 -0.8244
vn -0.4157 -0.5557 -0.7200
vn 0.0242 0.9996 0.0140
vn -0.0142 0.9996 0.0246
vn -0.0242 0.9996 0.0140
vn 0.6844 -0.6122 -0.3960
vn -0.7175 0.5600 -0.4143
vn -0.7653 0.4681 0.4418
vn -0.1378 -0.9875 -0.0765
vn -0.2216 -0.8966 -0.3834
vn -0.1445 -0.9857 0.0866
vn -0.0007 -0.9848 0.1739
vn -0.2314 -0.8862 0.4013
vn -0.4527 -0.8916 0.0005
vn -0.4197 -0.8747 -0.2422
vn 0.7939 -0.6080 -0.0004
vn 0.6867 -0.6095 0.3963
vn 0.1437 -0.9862 0.0825
vn 0.4295 -0.8686 0.2470
vn 0.2313 -0.8871 0.3995
vn 0.0006 -0.8656 0.5008
vn -0.0026 -1.0000 -0.0006
vn -0.3983 -0.6051 0.6894
vn -0.6873 -0.6089 0.3961
vn -0.7937 -0.6083 -0.0005
vn -0.6842 -0.6125 -0.3958
vn -0.3954 -0.6114 -0.6854
vn -0.4291 -0.8686 0.2477
vn 0.4550 -0.8905 -0.0016
vn 0.3981 -0.6061 0.6886
vn 0.0002 -0.6075 0.7943
vn -0.0000 -0.5660 0.8244
s 1
f 8/1/1 31/2/2 32/3/3 28/4/4
f 5/5/5 43/6/6 44/7/7 57/8/8
f 25/9/9 14/10/10 18/11/11 11/12/12
f 59/13/13 2/14/14 52/15/15 60/16/16
f 37/17/17 46/18/18 17/19/19
f 6/20/20 39/21/21 40/22/22 36/23/23
f 12/24/24 59/25/13 60/26/16 15/27/25
f 39/21/21 8/1/1 28/4/4 40/22/22
f 30/28/26 21/29/27 10/30/28 31/2/2
f 16/31/29 58/32/30 59/25/13 12/24/24
f 116/33/31 139/34/32 62/35/33
f 133/36/34 114/37/35 66/38/36
f 4/39/37 47/40/38 48/41/39 45/42/40
f 95/43/41 126/44/42 70/45/43
f 140/46/44 115/47/45 62/48/33
f 10/30/28 23/49/46 24/50/47 20/51/48
f 137/52/49 50/53/49 44/7/50 111/54/50
f 94/55/51 19/56/51 18/11/52 124/57/52
f 48/41/53 5/58/5 57/59/8 45/42/54
f 64/60/55 119/61/56 137/62/57
f 139/63/32 87/64/58 73/65/59
f 86/66/60 14/10/60 13/67/61 140/68/61
f 111/69/62 76/70/63 64/71/55
f 65/72/64 114/37/35 133/36/34
f 60/26/65 1/73/66 25/74/9 15/27/67
f 138/75/68 120/76/69 75/77/70 117/78/71
f 66/38/36 114/37/35 134/79/72
f 137/80/57 111/81/62 64/82/55
f 130/83/73 105/84/74 67/85/75
f 133/86/34 112/87/76 65/88/64
f 87/64/58 123/89/77 72/90/78
f 62/91/33 74/92/79 116/93/31
f 120/76/69 139/34/32 116/33/31 75/77/70
f 134/94/72 104/95/80 66/96/36
f 92/97/81 117/98/71 135/99/82
f 100/100/83 130/83/73 68/101/84
f 105/102/74 78/103/85 67/104/75
f 42/105/86 54/106/87 17/19/19
f 31/2/2 10/30/28 20/51/48 32/3/3
f 112/87/76 136/107/88 64/108/55
f 63/109/89 74/92/79 115/110/45
f 92/97/81 93/111/90 117/98/71
f 130/112/73 109/113/91 68/114/84
f 99/115/92 127/116/93 69/117/94
f 22/118/95 16/31/29 12/24/24 23/49/46
f 30/119/26 29/120/96 17/19/19
f 47/40/38 6/20/20 36/23/23 48/41/39
f 46/18/18 42/105/86 17/19/19
f 21/121/27 30/119/26 17/19/19
f 67/104/75 78/103/85 104/122/80
f 65/123/64 76/70/63 111/69/62
f 23/49/46 12/24/24 15/27/25 24/50/47
f 69/124/94 80/125/97 99/126/92
f 37/127/17 38/128/98 39/21/21 6/20/20
f 46/129/18 37/127/17 6/20/20 47/40/38
f 71/130/99 82/131/100 94/132/101
f 28/4/102 41/133/103 7/134/104 40/22/105
f 22/135/95 21/121/27 17/19/19
f 15/27/67 25/74/9 11/136/12 24/50/106
f 11/12/12 18/11/11 19/56/107 33/137/108
f 54/138/87 42/139/86 4/39/37 55/140/109
f 86/141/110 140/142/44 73/143/59
f 94/144/101 124/145/111 71/146/99
f 56/147/112 3/148/113 61/149/114 52/15/115
f 124/57/52 18/11/52 14/10/60 86/66/60
f 104/150/116 35/151/116 34/152/117 131/153/117
f 9/154/118 26/155/119 27/156/120 41/157/103
f 127/158/93 94/159/101 70/160/43
f 124/161/111 86/162/110 72/163/78
f 40/22/105 7/134/104 49/164/121 36/23/122
f 131/165/123 99/166/92 68/167/84
f 20/51/124 33/168/108 9/169/118 32/3/125
f 70/170/43 103/171/126 127/172/93
f 3/173/113 50/53/127 51/174/128 61/175/114
f 73/176/59 84/177/129 86/178/110
f 45/42/54 57/59/8 3/148/113 56/147/112
f 111/179/62 134/180/72 65/181/64
f 58/182/30 16/183/29 17/19/19
f 93/111/90 138/184/68 117/98/71
f 32/3/125 9/169/118 41/133/103 28/4/102
f 63/185/89 119/61/56 136/186/88
f 126/44/42 100/100/83 69/187/94
f 64/71/55 76/70/63 112/188/76
f 115/189/130 51/174/130 50/53/49 137/52/49
f 126/190/42 103/171/126 70/170/43
f 123/89/77 95/43/41 71/191/99
f 139/192/32 121/193/131 62/194/33
f 136/107/88 116/33/31 63/195/89
f 53/196/132 58/182/30 17/19/19
f 29/197/96 30/28/26 31/2/2 8/1/1
f 24/50/106 11/136/12 33/168/108 20/51/124
f 53/198/132 54/138/87 55/140/109 2/14/14
f 57/8/8 44/7/7 50/53/127 3/173/113
f 7/199/104 34/152/133 35/151/134 49/200/121
f 134/201/135 43/6/135 35/151/116 104/150/116
f 99/202/136 27/156/136 26/155/137 127/203/137
f 111/54/50 44/7/50 43/6/135 134/201/135
f 117/78/71 75/77/70 118/204/138 135/205/82
f 87/206/58 84/177/129 73/176/59
f 123/207/77 98/208/139 72/209/78
f 62/194/33 121/193/131 140/210/44
f 115/110/45 74/92/79 62/91/33
f 112/188/76 76/70/63 65/123/64
f 136/186/88 119/61/56 64/60/55
f 105/84/74 133/86/34 66/211/36
f 115/212/45 137/213/57 63/214/89
f 29/120/96 38/215/98 17/19/19
f 54/106/87 53/196/132 17/19/19
f 21/29/27 22/118/95 23/49/46 10/30/28
f 104/216/80 131/217/123 67/218/75
f 42/139/86 46/129/18 47/40/38 4/39/37
f 55/140/109 4/39/37 45/42/40 56/147/140
f 38/215/98 37/17/17 17/19/19
f 72/209/78 98/208/139 124/219/111
f 33/137/108 19/56/107 26/155/119 9/154/118
f 41/157/103 27/156/120 34/152/133 7/199/104
f 52/15/115 61/149/114 1/220/66 60/16/65
f 68/114/84 109/113/91 131/221/123
f 131/153/117 34/152/117 27/156/136 99/202/136
f 140/222/61 13/223/61 51/174/130 115/189/130
f 93/111/90 89/224/141 88/225/142
f 90/226/143 107/227/144 101/228/145
f 89/224/141 96/229/146 122/230/147
f 86/178/110 84/177/129 72/231/78
f 124/219/111 98/208/139 71/232/99
f 77/233/148 112/87/76 133/86/34 113/234/149
f 91/235/150 132/236/151 106/237/152
f 107/227/144 106/237/152 129/238/153
f 75/77/70 116/33/31 136/107/88 118/204/138
f 128/239/154 92/97/81 91/235/150
f 69/240/94 103/171/126 126/190/42
f 127/172/93 103/171/126 69/240/94
f 134/79/72 114/37/35 65/72/64
f 81/241/155 100/100/83 126/44/42 102/242/156
f 83/243/157 95/43/41 123/89/77 97/244/158
f 122/245/147 97/244/158 85/246/159 88/247/142
f 128/239/154 107/227/144 90/226/143
f 68/248/84 80/125/97 100/249/83
f 128/239/154 90/226/143 89/224/141
f 73/250/59 121/251/131 139/252/32
f 93/111/90 88/225/142 138/184/68
f 66/253/36 78/103/85 105/102/74
f 104/122/80 78/103/85 66/253/36
f 128/239/154 93/111/90 92/97/81
f 72/231/78 84/177/129 87/206/58
f 70/254/43 82/131/100 95/255/41
f 89/224/141 90/226/143 96/229/146
f 137/62/57 119/61/56 63/185/89
f 97/244/158 123/89/77 87/64/58 85/246/159
f 102/242/156 126/44/42 95/43/41 83/243/157
f 71/232/99 98/208/139 123/207/77
f 94/132/101 82/131/100 70/254/43
f 99/126/92 80/125/97 68/248/84
f 107/227/144 129/238/153 101/228/145
f 90/226/143 101/228/145 125/256/160
f 107/227/144 91/235/150 106/237/152
f 91/235/150 92/97/81 110/257/161
f 128/239/154 89/224/141 93/111/90
f 106/258/152 79/259/162 108/260/163 129/261/153
f 90/226/143 125/256/160 96/229/146
f 89/224/141 122/230/147 88/225/142
f 101/262/145 81/241/155 102/242/156 125/263/160
f 128/239/154 91/235/150 107/227/144
f 92/97/81 135/99/82 110/257/161
f 110/264/161 77/233/148 113/234/149 132/265/151
f 131/221/123 109/113/91 67/266/75
f 85/246/159 87/64/58 139/63/32 120/267/69
f 88/247/142 85/246/159 120/267/69 138/268/68
f 96/269/146 83/243/157 97/244/158 122/245/147
f 125/263/160 102/242/156 83/243/157 96/269/146
f 129/261/153 108/260/163 81/241/155 101/262/145
f 108/260/163 130/83/73 100/100/83 81/241/155
f 113/234/149 133/86/34 105/84/74 79/259/162
f 67/266/75 109/113/91 130/112/73
f 135/205/82 118/204/138 77/233/148 110/264/161
f 118/204/138 136/107/88 112/87/76 77/233/148
f 140/270/44 121/251/131 73/250/59
f 91/235/150 110/257/161 132/236/151
f 132/265/151 113/234/149 79/259/162 106/258/152
f 95/255/41 82/131/100 71/130/99
f 36/23/122 49/164/121 5/58/5 48/41/53
f 100/249/83 80/125/97 69/124/94
f 16/183/29 22/135/95 17/19/19
f 38/128/98 29/197/96 8/1/1 39/21/21
f 1/271/66 13/67/164 14/10/10 25/9/9
f 127/203/137 26/155/137 19/56/51 94/55/51
f 2/14/14 55/140/109 56/147/140 52/15/15
f 116/93/31 74/92/79 63/109/89
f 49/200/121 35/151/134 43/6/6 5/5/5
f 58/272/30 53/198/132 2/14/14 59/13/13
f 61/175/114 51/174/128 13/223/164 1/273/66
f 79/259/162 105/84/74 130/83/73 108/260/163
