# Blender v2.79 (sub 0) OBJ File: 'jungle_atlas_export.blend'
# www.blender.org
o ClayPot_01_Sphere.002
v 0.000000 0.165398 -0.080568
v 0.000000 0.097070 -0.103852
v 0.000000 0.020172 -0.073023
v 0.067198 0.165398 -0.041771
v 0.087362 0.097070 -0.053413
v 0.061015 0.020172 -0.037796
v 0.067198 0.165398 0.035822
v 0.087362 0.097070 0.047464
v 0.061015 0.019985 0.032253
v 0.000000 0.165398 0.074619
v -0.000000 0.097070 0.097902
v 0.000000 0.020172 0.067886
v 0.000000 0.000000 0.000000
v -0.067198 0.165398 0.035822
v -0.087362 0.097070 0.047464
v -0.061015 0.020172 0.032658
v -0.067198 0.165398 -0.041771
v -0.087362 0.097070 -0.053413
v -0.061015 0.020172 -0.037796
v 0.000000 0.137546 -0.097990
v 0.000000 0.061716 -0.096109
v 0.082286 0.137546 -0.050482
v 0.080657 0.061716 -0.049542
v 0.032488 0.016822 -0.058596
v 0.049974 0.097070 -0.089533
v 0.037682 0.165457 -0.068241
v 0.082286 0.137546 0.044533
v 0.080657 0.061716 0.043592
v 0.099949 0.097070 -0.002975
v 0.075363 0.165457 -0.002975
v 0.064975 0.016673 -0.002650
v -0.000000 0.137546 0.092041
v -0.000000 0.061716 0.090160
v 0.000000 0.003855 0.041745
v 0.032488 0.016673 0.053620
v 0.049974 0.097070 0.083583
v 0.037682 0.165457 0.062292
v -0.082286 0.137546 0.044533
v -0.080657 0.061716 0.043592
v -0.032488 0.016822 0.053945
v -0.049974 0.097070 0.083583
v -0.037682 0.165457 0.062292
v -0.082286 0.137546 -0.050482
v -0.080657 0.061716 -0.049542
v -0.064975 0.016822 -0.002326
v -0.099949 0.097070 -0.002975
v -0.075363 0.165457 -0.002975
v 0.000000 0.003979 -0.043097
v 0.036855 0.003855 -0.022090
v 0.036855 0.003234 0.019115
v -0.036855 0.003979 0.020737
v -0.036855 0.003979 -0.021819
v -0.032488 0.016822 -0.058596
v -0.049974 0.097070 -0.089533
v -0.037682 0.165457 -0.068241
v -0.045790 0.061127 -0.082286
v -0.046485 0.137841 -0.083489
v -0.091580 0.061127 -0.002975
v -0.092970 0.137841 -0.002975
v -0.045790 0.061127 0.076336
v -0.046485 0.137841 0.077540
v 0.045790 0.061127 0.076336
v 0.046485 0.137841 0.077540
v 0.091580 0.061127 -0.002975
v 0.092970 0.137841 -0.002975
v 0.045790 0.061127 -0.082286
v 0.046485 0.137841 -0.083489
v -0.023402 0.137127 -0.091653
v -0.065097 0.137127 -0.067581
v -0.088499 0.137127 -0.027047
v -0.088499 0.137127 0.021098
v -0.065097 0.137127 0.061632
v -0.023402 0.137127 0.085704
v 0.023402 0.137127 0.085704
v 0.065097 0.137127 0.061632
v 0.088499 0.137127 0.021098
v 0.088499 0.137127 -0.027047
v 0.065097 0.137127 -0.067581
v 0.023402 0.137127 -0.091653
v 0.036147 0.153737 -0.065559
v 0.000000 0.095965 -0.094529
v 0.000000 0.065974 -0.087500
v 0.000000 0.028259 -0.066542
v 0.072295 0.153737 -0.002950
v 0.079309 0.095965 -0.048740
v 0.073222 0.065974 -0.045225
v 0.055391 0.028259 -0.034562
v 0.029493 0.025218 -0.053444
v 0.045368 0.095965 -0.081529
v 0.034208 0.165886 -0.062201
v 0.061003 0.165832 -0.038171
v 0.036147 0.153737 0.059658
v 0.079309 0.095965 0.042839
v 0.073222 0.065974 0.039324
v 0.055391 0.028090 0.029030
v 0.090735 0.095965 -0.002950
v 0.068416 0.165886 -0.002950
v 0.061003 0.165832 0.032270
v 0.058986 0.025083 -0.002656
v -0.036147 0.153737 0.059658
v -0.000000 0.095965 0.088628
v 0.000000 0.065974 0.081599
v 0.000000 0.028259 0.061378
v 0.029493 0.025082 0.048427
v 0.045368 0.095965 0.075629
v 0.034208 0.165886 0.056300
v 0.000000 0.165832 0.067490
v -0.072295 0.153737 -0.002950
v -0.079309 0.095965 0.042839
v -0.073222 0.065974 0.039324
v -0.055391 0.028259 0.029398
v -0.029493 0.025218 0.048722
v -0.045368 0.095965 0.075629
v -0.034208 0.165886 0.056300
v -0.061003 0.165832 0.032270
v -0.036147 0.153737 -0.065559
v -0.079309 0.095965 -0.048740
v -0.073222 0.065974 -0.045225
v -0.055391 0.028259 -0.034562
v -0.058986 0.025218 -0.002361
v -0.090735 0.095965 -0.002950
v -0.068416 0.165886 -0.002950
v -0.061003 0.165832 -0.038171
v -0.000043 0.007515 -0.002552
v -0.029493 0.025218 -0.053444
v -0.045368 0.095965 -0.081530
v -0.034208 0.165886 -0.062201
v 0.000000 0.165832 -0.073391
v -0.041569 0.065439 -0.074951
v -0.064184 0.153692 -0.040007
v -0.083139 0.065439 -0.002950
v -0.064184 0.153692 0.034106
v -0.041569 0.065439 0.069050
v 0.000000 0.153692 0.071163
v 0.041569 0.065439 0.069050
v 0.064184 0.153692 0.034106
v 0.083139 0.065439 -0.002950
v 0.064184 0.153692 -0.040007
v 0.041569 0.065439 -0.074951
v 0.000000 0.153692 -0.077064
vt 0.049340 0.235181
vt 0.046377 0.239370
vt 0.044248 0.234782
vt 0.628984 0.027781
vt 0.621373 0.038920
vt 0.614020 0.033560
vt 0.099012 0.209285
vt 0.097985 0.204948
vt 0.103807 0.203894
vt 0.104484 0.207919
vt 0.624590 0.117967
vt 0.617130 0.129095
vt 0.609990 0.123957
vt 0.109852 0.207225
vt 0.109347 0.203206
vt 0.114798 0.202607
vt 0.115115 0.206523
vt 0.047095 0.230813
vt 0.052194 0.231138
vt 0.608962 0.141872
vt 0.601517 0.130746
vt 0.608962 0.126124
vt 0.120392 0.206340
vt 0.120233 0.202349
vt 0.125661 0.202183
vt 0.125658 0.206097
vt 0.054334 0.235684
vt 0.639889 0.140639
vt 0.632428 0.129514
vt 0.639889 0.124890
vt 0.130927 0.206347
vt 0.131090 0.202355
vt 0.136525 0.202616
vt 0.136207 0.206533
vt 0.051432 0.239826
vt 0.630840 0.075018
vt 0.623230 0.063884
vt 0.630840 0.059200
vt 0.141473 0.207235
vt 0.141978 0.203215
vt 0.147515 0.203903
vt 0.146840 0.207926
vt 0.650540 0.094512
vt 0.650540 0.109208
vt 0.640238 0.107536
vt 0.152309 0.209291
vt 0.153335 0.204956
vt 0.159911 0.206246
vt 0.158397 0.211103
vt 0.150200 0.215792
vt 0.155121 0.217062
vt 0.145536 0.213978
vt 0.647219 0.127105
vt 0.544857 0.104498
vt 0.536889 0.109654
vt 0.528479 0.096375
vt 0.544857 0.120957
vt 0.048435 0.243619
vt 0.043954 0.242799
vt 0.052956 0.243619
vt 0.140494 0.213661
vt 0.135639 0.212600
vt 0.615376 0.051941
vt 0.624590 0.101628
vt 0.617073 0.106592
vt 0.609094 0.094512
vt 0.624590 0.117835
vt 0.055927 0.240149
vt 0.058154 0.236238
vt 0.130610 0.212771
vt 0.125653 0.212173
vt 0.624722 0.117967
vt 0.586266 0.122396
vt 0.578798 0.127335
vt 0.570882 0.115392
vt 0.586266 0.138583
vt 0.056668 0.231943
vt 0.054376 0.228055
vt 0.120676 0.212798
vt 0.115642 0.212626
vt 0.593822 0.119240
vt 0.625180 0.100801
vt 0.632639 0.105761
vt 0.624722 0.117703
vt 0.640106 0.094512
vt 0.049923 0.227222
vt 0.045371 0.227266
vt 0.042434 0.230663
vt 0.040174 0.234588
vt 0.110791 0.213679
vt 0.105790 0.213975
vt 0.609428 0.140644
vt 0.549653 0.103080
vt 0.557183 0.108113
vt 0.549206 0.120197
vt 0.564701 0.096865
vt 0.101123 0.215791
vt 0.096199 0.217062
vt 0.092921 0.211100
vt 0.091404 0.206240
vt 0.613515 0.050866
vt 0.592794 0.100141
vt 0.600988 0.105823
vt 0.592573 0.119109
vt 0.608962 0.094512
vt 0.041686 0.238849
vt 0.608962 0.110983
vt 0.167344 0.709800
vt 0.162107 0.717303
vt 0.159011 0.709800
vt 0.564701 0.113076
vt 0.211202 0.726666
vt 0.205819 0.734136
vt 0.203001 0.726666
vt 0.640106 0.110701
vt 0.143329 0.699819
vt 0.152546 0.699819
vt 0.148133 0.706452
vt 0.571342 0.132298
vt 0.143247 0.698990
vt 0.137846 0.706452
vt 0.135054 0.698990
vt 0.609548 0.111627
vt 0.203710 0.711551
vt 0.198677 0.703873
vt 0.206679 0.703873
vt 0.528699 0.115332
vt 0.193888 0.726666
vt 0.202919 0.726666
vt 0.198643 0.733897
vt 0.615880 0.069239
vt 0.203907 0.719131
vt 0.198677 0.711632
vt 0.207004 0.711632
vt 0.625293 0.134657
vt 0.180140 0.709910
vt 0.174760 0.702444
vt 0.182958 0.702444
vt 0.594404 0.135863
vt 0.214729 0.703877
vt 0.209622 0.711551
vt 0.206761 0.703877
vt 0.624590 0.133720
vt 0.159011 0.703080
vt 0.168225 0.703080
vt 0.163422 0.709719
vt 0.628984 0.043603
vt 0.198566 0.719213
vt 0.207751 0.719213
vt 0.202954 0.725908
vt 0.630972 0.061983
vt 0.641281 0.060313
vt 0.641281 0.075018
vt 0.172124 0.720905
vt 0.167524 0.728684
vt 0.163716 0.720905
vt 0.157114 0.200294
vt 0.150988 0.199667
vt 0.145330 0.198957
vt 0.139644 0.198348
vt 0.134101 0.197928
vt 0.128436 0.197708
vt 0.122891 0.197706
vt 0.117225 0.197922
vt 0.111681 0.198339
vt 0.105994 0.198946
vt 0.100334 0.199655
vt 0.094203 0.200284
vt 0.637958 0.042403
vt 0.028114 0.182498
vt 0.028114 0.174959
vt 0.033537 0.174959
vt 0.033537 0.182498
vt 0.066055 0.186378
vt 0.060637 0.186378
vt 0.060637 0.182498
vt 0.066055 0.182498
vt 0.055217 0.186378
vt 0.049803 0.186378
vt 0.049803 0.182498
vt 0.055217 0.182498
vt 0.044378 0.186378
vt 0.038956 0.186378
vt 0.038956 0.182498
vt 0.044378 0.182498
vt 0.033537 0.186378
vt 0.028114 0.186378
vt 0.022698 0.186378
vt 0.017272 0.186378
vt 0.017272 0.182498
vt 0.022698 0.182498
vt 0.011854 0.186378
vt 0.006431 0.186378
vt 0.006431 0.182498
vt 0.011854 0.182498
vt 0.011854 0.191987
vt 0.006431 0.191987
vt 0.017272 0.191987
vt 0.020700 0.231439
vt 0.022048 0.235235
vt 0.014038 0.234518
vt 0.006040 0.233813
vt 0.008025 0.230281
vt 0.022698 0.191987
vt 0.028114 0.191987
vt 0.010655 0.227235
vt 0.007377 0.237591
vt 0.020039 0.238716
vt 0.033537 0.191987
vt 0.038956 0.191987
vt 0.017430 0.241808
vt 0.013384 0.241808
vt 0.009428 0.241098
vt 0.044378 0.191987
vt 0.049803 0.191987
vt 0.014695 0.227222
vt 0.018678 0.227990
vt 0.055217 0.191987
vt 0.060637 0.191987
vt 0.066055 0.191987
vt 0.071478 0.191987
vt 0.071478 0.186378
vt 0.071478 0.182498
vt 0.017272 0.174959
vt 0.022698 0.174959
vt 0.055217 0.174959
vt 0.060637 0.174959
vt 0.044378 0.174959
vt 0.049803 0.174959
vt 0.038956 0.174959
vt 0.011854 0.174959
vt 0.066055 0.174959
vt 0.071478 0.174959
vt 0.245566 0.605008
vt 0.242506 0.605008
vt 0.242506 0.596117
vt 0.245566 0.596117
vt 0.242506 0.587212
vt 0.245566 0.587212
vt 0.242506 0.578324
vt 0.245566 0.578324
vt 0.242506 0.569423
vt 0.245566 0.569423
vt 0.242506 0.560530
vt 0.245566 0.560530
vt 0.242506 0.551633
vt 0.245566 0.551633
vt 0.242506 0.542730
vt 0.245566 0.542730
vt 0.242506 0.533845
vt 0.245566 0.533845
vt 0.242506 0.524951
vt 0.245566 0.524951
vt 0.242506 0.516060
vt 0.245566 0.516060
vt 0.242506 0.507160
vt 0.245566 0.507160
vt 0.006431 0.174959
vt 0.240806 0.596117
vt 0.240806 0.605008
vt 0.240806 0.533845
vt 0.240806 0.542730
vt 0.240806 0.587212
vt 0.240806 0.551633
vt 0.240806 0.560530
vt 0.240806 0.569423
vt 0.242506 0.613907
vt 0.240806 0.613907
vt 0.240806 0.507160
vt 0.240806 0.516060
vt 0.240806 0.578324
vt 0.240806 0.524951
vt 0.245566 0.613907
vn -0.0057 -1.0000 -0.0012
vn -0.0013 -0.9511 -0.3089
vn 0.2755 -0.9476 -0.1619
vn 0.7269 0.5436 -0.4197
vn 0.8158 0.3355 -0.4710
vn 0.6409 0.3383 -0.6890
vn 0.4668 -0.3575 -0.8089
vn 0.4997 -0.0358 -0.8655
vn 0.8653 -0.0410 -0.4996
vn 0.8080 -0.3583 -0.4677
vn 0.7269 0.5436 0.4197
vn 0.8158 0.3355 0.4710
vn 0.9172 0.3383 0.2105
vn 0.9354 -0.3537 -0.0005
vn 0.9994 -0.0358 -0.0000
vn 0.8653 -0.0410 0.4996
vn 0.8097 -0.3553 0.4671
vn 0.2849 -0.9446 0.1631
vn -0.0017 -0.9391 0.3435
vn -0.0000 0.5436 0.8394
vn -0.0000 0.3355 0.9420
vn 0.2763 0.3383 0.8996
vn 0.4687 -0.3517 0.8103
vn 0.4997 -0.0358 0.8655
vn -0.0000 -0.0410 0.9992
vn 0.0005 -0.3532 0.9356
vn -0.2873 -0.9424 0.1715
vn -0.7269 0.5436 0.4197
vn -0.8158 0.3355 0.4710
vn -0.6409 0.3383 0.6890
vn -0.4685 -0.3506 0.8110
vn -0.4997 -0.0358 0.8655
vn -0.8653 -0.0410 0.4996
vn -0.8101 -0.3547 0.4668
vn -0.2766 -0.9485 -0.1542
vn -0.7269 0.5436 -0.4197
vn -0.8158 0.3355 -0.4710
vn -0.9172 0.3383 -0.2105
vn -0.9352 -0.3540 -0.0004
vn -0.9994 -0.0358 -0.0000
vn -0.8653 -0.0410 -0.4996
vn -0.8080 -0.3587 -0.4674
vn 0.0000 0.5436 -0.8394
vn 0.0000 0.3355 -0.9420
vn -0.2763 0.3383 -0.8996
vn -0.4668 -0.3575 -0.8089
vn -0.4997 -0.0358 -0.8655
vn 0.0000 -0.0410 -0.9992
vn 0.0000 -0.3606 -0.9327
vn -0.3431 -0.7271 -0.5946
vn 0.0000 -0.6794 -0.7337
vn -0.6396 -0.6737 -0.3703
vn -0.6409 0.3383 -0.6890
vn -0.4673 0.3559 -0.8093
vn -0.4209 0.5397 -0.7291
vn -0.6978 -0.7163 -0.0003
vn -0.6503 -0.6611 0.3742
vn -0.9172 0.3383 0.2105
vn -0.9345 0.3559 -0.0000
vn -0.8419 0.5397 -0.0000
vn -0.3549 -0.7046 0.6145
vn 0.0010 -0.6547 0.7559
vn -0.2763 0.3383 0.8995
vn -0.4673 0.3559 0.8093
vn -0.4209 0.5397 0.7291
vn 0.3553 -0.7057 0.6130
vn 0.6511 -0.6604 0.3741
vn 0.6409 0.3383 0.6890
vn 0.4673 0.3559 0.8093
vn 0.4209 0.5397 0.7291
vn 0.7007 -0.7134 -0.0039
vn 0.6405 -0.6717 -0.3722
vn 0.9172 0.3383 -0.2105
vn 0.9345 0.3559 -0.0000
vn 0.8419 0.5397 0.0000
vn 0.3429 -0.7261 -0.5960
vn 0.2763 0.3383 -0.8995
vn 0.4673 0.3559 -0.8093
vn 0.4209 0.5397 -0.7291
vn 0.8656 -0.0309 -0.4998
vn 0.8262 -0.2998 -0.4770
vn 0.4779 -0.2941 -0.8277
vn 0.4998 -0.0307 -0.8656
vn -0.4654 0.3645 0.8065
vn -0.8055 0.3657 0.4663
vn -0.8656 -0.0309 0.4998
vn -0.4998 -0.0307 0.8656
vn -0.9327 0.3608 0.0005
vn -0.8073 0.3626 -0.4657
vn -0.8656 -0.0309 -0.4998
vn -0.9995 -0.0307 -0.0000
vn -0.4673 0.3588 -0.8080
vn -0.0005 0.3605 -0.9328
vn 0.0000 -0.0309 -0.9995
vn -0.4998 -0.0307 -0.8656
vn 0.4671 0.3576 -0.8086
vn 0.8077 0.3620 -0.4654
vn 0.9325 0.3611 0.0004
vn 0.8056 0.3660 0.4660
vn 0.8656 -0.0309 0.4998
vn 0.9995 -0.0307 0.0000
vn 0.4654 0.3645 0.8065
vn -0.0000 0.3679 0.9299
vn -0.0000 -0.0309 0.9995
vn 0.4998 -0.0307 0.8656
vn 0.3130 0.7809 0.5406
vn -0.0000 0.7281 0.6855
vn 0.5953 0.7265 0.3433
vn -0.6275 0.7786 0.0008
vn -0.5950 0.7261 0.3447
vn 0.0009 1.0000 0.0006
vn 0.5978 0.7234 -0.3456
vn 0.3151 0.7752 -0.5476
vn 0.6283 0.7780 -0.0017
vn -0.0007 0.7217 -0.6922
vn -0.3130 0.7809 0.5405
vn -0.3147 0.7768 -0.5455
vn -0.5972 0.7247 -0.3438
vn 0.8262 -0.2998 0.4770
vn 0.9558 -0.2941 0.0000
vn -0.9558 -0.2941 -0.0000
vn -0.8262 -0.2998 0.4770
vn -0.4779 -0.2941 -0.8277
vn -0.8262 -0.2998 -0.4770
vn 0.0000 -0.2998 -0.9540
vn 0.4779 -0.2941 0.8277
vn -0.4779 -0.2941 0.8277
vn -0.0000 -0.2998 0.9540
vn 0.4780 -0.2934 0.8279
vn 0.8260 -0.3006 0.4769
vn 0.9560 -0.2934 0.0000
vn 0.8260 -0.3006 -0.4769
vn 0.4780 -0.2934 -0.8279
vn -0.0000 -0.3006 -0.9537
vn -0.4780 -0.2934 -0.8279
vn -0.8260 -0.3006 -0.4769
vn -0.9560 -0.2934 -0.0000
vn -0.8260 -0.3006 0.4769
vn -0.4780 -0.2934 0.8279
vn -0.0000 -0.3006 0.9537
vn -0.0524 0.9982 -0.0303
vn -0.0525 0.9982 -0.0302
vn -0.0308 0.9981 -0.0533
vn -0.0307 0.9981 -0.0533
vn 0.0617 0.9981 -0.0000
vn 0.0526 0.9982 0.0304
vn -0.0617 0.9981 -0.0000
vn 0.0309 0.9981 0.0536
vn -0.0000 0.9981 0.0609
vn -0.0309 0.9981 0.0536
vn 0.0000 0.9982 -0.0605
vn 0.0308 0.9981 -0.0532
vn 0.0307 0.9981 -0.0533
vn -0.0526 0.9982 0.0304
vn 0.0524 0.9982 -0.0303
vn 0.0525 0.9982 -0.0302
s 1
f 13/1/1 48/2/2 49/3/3
f 4/4/4 22/5/5 78/6/6
f 66/7/7 25/8/8 5/9/9 23/10/10
f 7/11/11 27/12/12 76/13/13
f 64/14/14 29/15/15 8/16/16 28/17/17
f 13/1/1 49/3/3 50/18/18
f 13/1/1 50/18/18 34/19/19
f 10/20/20 32/21/21 74/22/22
f 62/23/23 36/24/24 11/25/25 33/26/26
f 13/1/1 34/19/19 51/27/27
f 14/28/28 38/29/29 72/30/30
f 60/31/31 41/32/32 15/33/33 39/34/34
f 13/1/1 51/27/27 52/35/35
f 17/36/36 43/37/37 70/38/38
f 58/39/39 46/40/40 18/41/41 44/42/42
f 13/1/1 52/35/35 48/2/2
f 1/43/43 20/44/44 68/45/45
f 56/46/46 54/47/47 2/48/48 21/49/49
f 53/50/50 56/46/46 21/49/49 3/51/51
f 19/52/52 44/42/42 56/46/46 53/50/50
f 44/42/42 18/41/41 54/47/47 56/46/46
f 68/45/45 20/44/44 2/53/48
f 69/54/53 57/55/54 54/56/47
f 55/57/55 57/55/54 69/54/53
f 48/2/2 53/58/50 3/59/51
f 48/2/2 52/35/35 53/58/50
f 52/35/35 19/60/52 53/58/50
f 45/61/56 58/39/39 44/42/42 19/52/52
f 16/62/57 39/34/34 58/39/39 45/61/56
f 39/34/34 15/33/33 46/40/40 58/39/39
f 70/38/38 43/37/37 18/63/41
f 71/64/58 59/65/59 46/66/40
f 47/67/60 59/65/59 71/64/58
f 52/35/35 45/68/56 19/60/52
f 52/35/35 51/27/27 45/68/56
f 51/27/27 16/69/57 45/68/56
f 40/70/61 60/31/31 39/34/34 16/62/57
f 12/71/62 33/26/26 60/31/31 40/70/61
f 33/26/26 11/25/25 41/32/32 60/31/31
f 72/30/30 38/29/29 15/72/33
f 73/73/63 61/74/64 41/75/32
f 42/76/65 61/74/64 73/73/63
f 51/27/27 40/77/61 16/69/57
f 51/27/27 34/19/19 40/77/61
f 34/19/19 12/78/62 40/77/61
f 35/79/66 62/23/23 33/26/26 12/71/62
f 9/80/67 28/17/17 62/23/23 35/79/66
f 28/17/17 8/16/16 36/24/24 62/23/23
f 74/22/22 32/21/21 11/81/25
f 75/82/68 63/83/69 36/84/24
f 37/85/70 63/83/69 75/82/68
f 34/19/19 35/86/66 12/78/62
f 34/19/19 50/18/18 35/86/66
f 50/18/18 9/87/67 35/86/66
f 50/18/18 31/88/71 9/87/67
f 50/18/18 49/3/3 31/88/71
f 49/3/3 6/89/72 31/88/71
f 31/90/71 64/14/14 28/17/17 9/80/67
f 6/91/72 23/10/10 64/14/14 31/90/71
f 23/10/10 5/9/9 29/15/15 64/14/14
f 76/13/13 27/12/12 8/92/16
f 77/93/73 65/94/74 29/95/15
f 30/96/75 65/94/74 77/93/73
f 24/97/76 66/7/7 23/10/10 6/91/72
f 3/98/51 21/99/49 66/7/7 24/97/76
f 21/99/49 2/100/48 25/8/8 66/7/7
f 78/6/6 22/5/5 5/101/9
f 79/102/77 67/103/78 25/104/8
f 26/105/79 67/103/78 79/102/77
f 49/3/3 24/106/76 6/89/72
f 49/3/3 48/2/2 24/106/76
f 48/2/2 3/59/51 24/106/76
f 78/107/6 67/103/78 26/105/79
f 26/108/79 4/109/4 78/110/6
f 76/111/13 65/94/74 30/96/75
f 30/112/75 7/113/11 76/114/13
f 74/115/22 63/83/69 37/85/70
f 37/116/70 10/117/20 74/118/22
f 72/119/30 61/74/64 42/76/65
f 42/120/65 14/121/28 72/122/30
f 70/123/38 59/65/59 47/67/60
f 47/124/60 17/125/36 70/126/38
f 68/127/45 57/55/54 55/57/55
f 55/128/55 1/129/43 68/130/45
f 69/131/53 43/37/37 17/36/36
f 17/132/36 55/133/55 69/134/53
f 71/135/58 38/29/29 14/28/28
f 14/136/28 47/137/60 71/138/58
f 73/139/63 32/21/21 10/20/20
f 10/140/20 42/141/65 73/142/63
f 75/143/68 27/12/12 7/11/11
f 7/144/11 37/145/70 75/146/68
f 77/147/73 22/5/5 4/4/4
f 4/148/4 30/149/75 77/150/73
f 79/151/77 20/152/44 1/153/43
f 1/154/43 26/155/79 79/156/77
f 2/48/48 54/47/47 68/157/45
f 54/56/47 57/55/54 68/127/45
f 54/47/47 18/41/41 69/158/53
f 18/63/41 43/37/37 69/131/53
f 18/41/41 46/40/40 70/159/38
f 46/66/40 59/65/59 70/123/38
f 46/40/40 15/33/33 71/160/58
f 15/72/33 38/29/29 71/135/58
f 15/33/33 41/32/32 72/161/30
f 41/75/32 61/74/64 72/119/30
f 41/32/32 11/25/25 73/162/63
f 11/81/25 32/21/21 73/139/63
f 11/25/25 36/24/24 74/163/22
f 36/84/24 63/83/69 74/115/22
f 36/24/24 8/16/16 75/164/68
f 8/92/16 27/12/12 75/143/68
f 8/16/16 29/15/15 76/165/13
f 29/95/15 65/94/74 76/111/13
f 29/15/15 5/9/9 77/166/73
f 5/101/9 22/5/5 77/147/73
f 5/9/9 25/8/8 78/167/6
f 25/104/8 67/103/78 78/107/6
f 25/8/8 2/100/48 79/168/77
f 2/169/48 20/152/44 79/151/77
f 109/170/80 132/171/81 100/172/82 113/173/83
f 139/174/84 86/175/85 85/176/86 89/177/87
f 137/178/88 94/179/89 93/180/90 96/181/91
f 135/182/92 102/183/93 101/184/94 105/185/95
f 133/186/96 110/187/97 109/170/80 113/173/83
f 131/188/98 118/189/99 117/190/100 121/191/101
f 129/192/102 82/193/103 81/194/104 126/195/105
f 125/196/106 83/197/107 82/193/103 129/192/102
f 119/198/108 125/196/106 129/192/102 118/189/99
f 118/189/99 129/192/102 126/195/105 117/190/100
f 99/199/109 87/200/110 124/201/111
f 111/202/112 112/203/113 124/201/111
f 120/204/114 119/198/108 118/189/99 131/188/98
f 111/205/112 120/204/114 131/188/98 110/187/97
f 110/187/97 131/188/98 121/191/101 109/170/80
f 112/203/113 103/206/115 124/201/111
f 120/207/114 111/202/112 124/201/111
f 87/200/110 88/208/116 124/201/111
f 112/209/113 111/205/112 110/187/97 133/186/96
f 103/210/115 112/209/113 133/186/96 102/183/93
f 102/183/93 133/186/96 113/173/83 101/184/94
f 88/208/116 83/211/107 124/201/111
f 83/211/107 125/212/106 124/201/111
f 125/212/106 119/213/108 124/201/111
f 104/214/117 103/210/115 102/183/93 135/182/92
f 95/215/118 104/214/117 135/182/92 94/179/89
f 94/179/89 135/182/92 105/185/95 93/180/90
f 119/213/108 120/207/114 124/201/111
f 103/206/115 104/216/117 124/201/111
f 104/216/117 95/217/118 124/201/111
f 95/217/118 99/199/109 124/201/111
f 99/218/109 95/215/118 94/179/89 137/178/88
f 87/219/110 99/218/109 137/178/88 86/175/85
f 86/175/85 137/178/88 96/181/91 85/176/86
f 88/220/116 87/219/110 86/175/85 139/174/84
f 83/221/107 88/220/116 139/174/84 82/222/103
f 82/222/103 139/174/84 89/177/87 81/223/104
f 117/190/100 130/224/119 108/225/120 121/191/101
f 96/181/91 84/226/121 138/227/122 85/176/86
f 105/185/95 92/228/123 136/229/124 93/180/90
f 113/173/83 100/172/82 134/230/125 101/184/94
f 101/184/94 134/230/125 92/228/123 105/185/95
f 126/195/105 116/231/126 130/224/119 117/190/100
f 85/176/86 138/227/122 80/232/127 89/177/87
f 89/177/87 80/232/127 140/233/128 81/223/104
f 116/234/126 127/235/129 123/236/130 130/237/119
f 130/237/119 123/236/130 122/238/131 108/239/120
f 108/239/120 122/238/131 115/240/132 132/241/81
f 132/241/81 115/240/132 114/242/133 100/243/82
f 100/243/82 114/242/133 107/244/134 134/245/125
f 134/245/125 107/244/134 106/246/135 92/247/123
f 92/247/123 106/246/135 98/248/136 136/249/124
f 136/249/124 98/248/136 97/250/137 84/251/121
f 84/251/121 97/250/137 91/252/138 138/253/122
f 138/253/122 91/252/138 90/254/139 80/255/127
f 80/255/127 90/254/139 128/256/140 140/257/128
f 121/191/101 108/225/120 132/171/81 109/170/80
f 81/194/104 140/258/128 116/231/126 126/195/105
f 93/180/90 136/229/124 84/226/121 96/181/91
f 17/259/141 123/236/142 127/235/143 55/260/144
f 30/261/145 97/250/145 98/248/146 7/262/146
f 47/263/147 122/238/147 123/236/142 17/259/141
f 37/264/148 106/246/148 107/244/149 10/265/149
f 10/265/149 107/244/149 114/242/150 42/266/150
f 55/260/144 127/235/143 128/267/151 1/268/151
f 1/269/151 128/256/151 90/254/152 26/270/153
f 42/266/150 114/242/150 115/240/154 14/271/154
f 14/271/154 115/240/154 122/238/147 47/263/147
f 4/272/155 91/252/156 97/250/145 30/261/145
f 7/262/146 98/248/146 106/246/148 37/264/148
f 26/270/153 90/254/152 91/252/156 4/272/155
f 140/273/128 128/267/140 127/235/129 116/234/126
